<?xml version="1.0" standalone="no"?>
<!DOCTYPE svg PUBLIC "-//W3C//DTD SVG 20010904//EN"
 "http://www.w3.org/TR/2001/REC-SVG-20010904/DTD/svg10.dtd">
<svg version="1.0" xmlns="http://www.w3.org/2000/svg"
 width="992.000000pt" height="992.000000pt" viewBox="0 0 992.000000 992.000000"
 preserveAspectRatio="xMidYMid meet">
<metadata>
Created by potrace 1.14, written by Peter Selinger 2001-2017
</metadata>
<g transform="translate(0.000000,992.000000) scale(0.100000,-0.100000)"
fill="#000000" stroke="none">
<path d="M4730 9882 l-28 -28 -26 23 c-37 32 -81 30 -115 -5 -28 -27 -29 -27
-52 -10 -13 10 -35 20 -48 23 -31 6 -78 -19 -86 -46 l-7 -21 -23 22 c-37 35
-91 31 -126 -8 -24 -27 -30 -29 -42 -17 -36 36 -113 24 -137 -21 -13 -23 -30
-32 -30 -16 0 14 -47 31 -71 27 -32 -6 -67 -32 -74 -55 l-6 -20 -28 21 c-43
31 -115 11 -127 -37 -5 -19 -9 -22 -19 -14 -47 39 -123 24 -145 -29 -12 -30
-14 -31 -31 -15 -29 26 -89 21 -116 -11 -13 -14 -23 -33 -23 -40 0 -12 -5 -12
-34 2 -21 9 -44 13 -60 9 -32 -8 -66 -44 -66 -69 0 -14 -3 -17 -12 -9 -7 6
-30 13 -50 17 -33 6 -41 4 -68 -23 -16 -17 -30 -38 -30 -47 0 -12 -4 -14 -19
-5 -50 26 -122 -3 -135 -55 -5 -21 -10 -24 -26 -15 -48 26 -116 -5 -126 -57
-6 -32 -8 -33 -28 -20 -46 29 -126 -14 -126 -69 0 -21 -3 -23 -19 -14 -52 27
-116 -3 -127 -59 -6 -27 -8 -28 -52 -23 -41 3 -50 0 -71 -22 -13 -14 -24 -35
-25 -48 -1 -20 -6 -23 -35 -20 -69 7 -103 -24 -110 -101 -1 -4 -8 -4 -17 1
-18 10 -46 6 -81 -10 -23 -11 -49 -70 -39 -87 3 -5 -13 -6 -37 -4 -35 4 -47 1
-70 -21 -23 -22 -33 -49 -28 -79 1 -5 -11 -8 -26 -6 -67 5 -117 -40 -107 -96
3 -19 0 -22 -21 -17 -59 11 -105 -26 -107 -86 -1 -27 -4 -29 -39 -28 -50 1
-81 -30 -83 -84 -1 -34 -4 -38 -21 -34 -53 13 -114 -50 -101 -102 6 -22 3 -24
-22 -22 -16 1 -41 -6 -55 -15 -29 -19 -49 -73 -36 -98 6 -13 2 -16 -26 -16
-58 0 -100 -52 -85 -105 8 -25 6 -27 -20 -26 -59 2 -99 -48 -88 -107 4 -21 1
-25 -18 -25 -12 0 -37 -12 -54 -27 -28 -23 -31 -31 -28 -69 3 -40 1 -43 -27
-49 -55 -11 -70 -30 -70 -88 1 -48 -1 -52 -23 -54 -13 0 -35 -12 -49 -24 -21
-21 -24 -31 -21 -71 5 -46 4 -46 -28 -52 -52 -10 -81 -76 -54 -126 8 -15 5
-19 -25 -24 -56 -11 -83 -74 -55 -127 9 -15 7 -19 -6 -19 -9 0 -29 -8 -45 -17
-33 -20 -48 -71 -31 -109 10 -21 9 -24 -13 -30 -14 -3 -34 -18 -45 -31 -21
-27 -27 -87 -10 -98 17 -10 11 -25 -9 -25 -11 0 -31 -14 -46 -31 -21 -26 -25
-38 -20 -67 3 -20 10 -41 16 -49 9 -10 7 -13 -7 -13 -24 -1 -47 -18 -62 -47
-16 -30 -15 -59 4 -88 15 -22 15 -25 1 -25 -9 0 -28 -10 -42 -23 -32 -27 -37
-87 -10 -117 16 -17 15 -19 -6 -25 -55 -18 -77 -75 -49 -128 l19 -35 -24 -6
c-26 -7 -55 -51 -55 -84 0 -11 9 -31 20 -44 l19 -25 -24 -11 c-26 -12 -55 -59
-51 -83 5 -31 18 -59 27 -59 17 0 9 -17 -15 -29 -13 -7 -28 -23 -34 -35 -13
-30 -8 -82 11 -101 15 -14 14 -18 -15 -44 -39 -35 -43 -88 -9 -125 l23 -24
-21 -7 c-27 -8 -52 -55 -46 -86 3 -13 13 -35 23 -48 17 -23 17 -24 -10 -52
-38 -38 -34 -107 8 -132 9 -5 5 -15 -17 -36 -36 -37 -38 -79 -5 -118 l24 -29
-24 -23 c-33 -32 -33 -90 0 -122 l24 -23 -24 -29 c-33 -39 -31 -81 5 -117 l28
-29 -23 -22 c-34 -32 -32 -82 4 -118 27 -28 27 -29 10 -52 -37 -49 -29 -105
18 -130 24 -12 24 -12 4 -34 -37 -40 -30 -111 15 -135 l24 -13 -20 -36 c-10
-19 -19 -41 -19 -48 0 -27 25 -63 54 -77 17 -9 25 -16 18 -16 -17 0 -42 -62
-37 -90 5 -28 31 -57 56 -65 18 -6 18 -8 -3 -35 -19 -27 -20 -33 -9 -70 9 -30
20 -45 42 -54 17 -7 25 -16 20 -22 -4 -5 -13 -23 -19 -40 -13 -41 11 -92 50
-106 26 -9 28 -12 14 -27 -37 -41 -14 -124 38 -137 23 -5 23 -7 10 -32 -17
-33 -18 -56 -2 -85 15 -29 38 -46 62 -47 15 0 16 -3 7 -14 -17 -20 -22 -74 -9
-101 10 -23 46 -45 74 -45 14 0 14 -2 0 -16 -9 -8 -16 -32 -16 -53 0 -40 26
-73 67 -86 19 -5 21 -10 13 -25 -26 -49 16 -130 67 -130 24 0 24 -1 11 -22
-30 -48 12 -128 67 -128 21 0 22 -2 13 -28 -20 -53 18 -122 67 -122 20 0 22
-4 18 -48 -4 -41 -2 -50 21 -71 14 -13 39 -24 55 -25 24 -1 27 -4 20 -18 -23
-44 0 -103 47 -118 19 -6 39 -8 46 -4 8 5 9 2 3 -12 -23 -56 16 -126 73 -128
28 -1 29 -2 24 -43 -6 -54 28 -93 83 -93 32 0 35 -2 26 -19 -15 -28 4 -85 34
-101 14 -7 38 -13 53 -13 24 0 28 -4 24 -23 -11 -59 27 -104 88 -106 22 -1 29
-5 26 -15 -20 -50 41 -119 94 -108 24 5 25 3 25 -34 0 -52 34 -86 86 -86 33 0
36 -2 37 -28 2 -58 48 -96 106 -85 19 4 23 0 23 -24 0 -15 6 -39 13 -53 16
-30 73 -49 101 -34 17 9 19 6 19 -26 0 -25 8 -44 26 -62 22 -22 32 -25 69 -21
34 4 42 2 38 -9 -8 -21 16 -69 40 -82 27 -14 66 -16 91 -6 14 6 17 5 12 -3 -4
-7 -2 -28 4 -46 13 -41 54 -61 104 -52 31 6 33 5 34 -19 0 -14 10 -37 23 -51
21 -23 30 -25 72 -21 43 4 47 2 47 -18 0 -49 69 -87 122 -67 26 9 28 9 28 -14
0 -55 77 -92 131 -64 16 9 19 7 19 -14 0 -15 12 -34 32 -51 30 -26 56 -29 107
-14 7 2 15 -4 16 -15 6 -35 46 -66 86 -66 21 0 41 4 44 10 10 15 25 12 25 -6
0 -8 13 -29 30 -45 31 -32 62 -34 109 -10 18 10 21 9 21 -6 1 -23 19 -46 47
-61 29 -16 52 -15 85 2 25 13 27 13 32 -10 13 -52 96 -75 137 -38 15 14 18 12
27 -14 14 -39 65 -63 106 -50 17 6 35 15 40 19 6 5 15 -3 22 -20 9 -22 24 -33
54 -42 37 -11 43 -10 70 9 27 21 29 21 35 3 9 -28 39 -52 71 -55 33 -4 84 19
84 37 0 6 8 -2 16 -20 26 -52 119 -68 143 -25 7 12 14 9 38 -18 36 -40 79 -44
123 -11 23 16 30 18 30 7 0 -21 62 -56 91 -51 13 3 35 13 48 23 23 17 24 17
52 -10 34 -35 78 -37 115 -5 l26 23 28 -28 c36 -36 81 -37 118 -3 l26 25 26
-25 c38 -36 90 -34 123 4 l24 29 13 -23 c7 -14 17 -22 21 -19 4 2 10 0 14 -6
13 -21 66 -10 96 19 21 22 31 26 36 17 25 -42 94 -46 132 -8 28 27 29 27 52
10 13 -10 35 -20 48 -23 31 -6 78 19 86 46 l7 21 24 -23 c37 -34 90 -30 125 9
24 27 30 29 42 17 36 -36 113 -24 137 21 13 23 30 32 30 16 0 -14 47 -31 71
-27 32 6 67 32 74 55 6 20 6 20 34 -1 43 -32 115 -12 127 36 l6 24 38 -20 c35
-18 41 -19 73 -6 21 9 40 27 48 45 12 29 15 30 31 16 28 -26 89 -20 115 11 13
14 23 33 23 40 0 12 5 12 34 -2 21 -9 44 -13 60 -9 32 8 66 44 66 69 0 18 1
18 24 3 14 -9 39 -14 56 -12 36 4 80 41 80 68 0 15 3 17 19 8 53 -28 118 -1
135 56 6 19 10 21 35 11 52 -19 107 10 118 64 5 27 7 28 32 15 27 -14 70 -7
96 14 8 7 17 28 21 47 5 25 10 31 17 24 6 -6 27 -11 47 -11 43 0 78 29 86 69
6 27 8 28 52 23 41 -3 50 0 71 22 13 14 24 35 25 48 1 21 5 23 42 20 51 -4 98
30 99 74 2 27 4 28 46 26 33 -3 49 2 66 18 24 22 39 62 29 78 -3 6 13 7 39 5
38 -5 47 -2 69 22 24 26 31 49 27 83 -2 10 3 11 16 4 48 -25 116 23 116 82 0
29 3 33 16 27 25 -13 79 7 97 35 10 14 17 38 16 53 -1 25 2 27 38 27 29 0 45
6 60 24 23 26 35 63 27 83 -3 9 7 13 35 13 53 2 80 29 82 82 1 36 3 39 29 40
58 2 96 48 85 106 -4 20 -1 23 29 23 51 0 87 40 85 92 -1 23 1 40 6 40 30 -5
57 5 78 28 20 22 25 36 22 65 -3 34 -1 38 18 38 13 0 37 12 54 27 28 23 31 31
28 69 -3 40 -1 43 27 49 55 11 70 30 70 88 -1 48 1 52 23 54 13 0 35 12 49 24
21 21 24 31 21 71 -5 46 -4 46 28 52 53 10 81 76 54 127 -9 16 -7 19 15 19 40
0 75 41 75 88 0 21 -5 43 -11 49 -7 7 -1 12 24 17 54 10 76 63 56 135 -2 7 5
15 16 17 32 5 65 51 65 89 0 19 -4 37 -10 40 -15 10 -12 25 6 25 23 0 74 55
74 80 0 11 -7 34 -15 50 -14 28 -14 30 2 30 35 1 73 47 73 90 0 11 -7 32 -16
45 -15 22 -15 25 -1 25 9 0 28 10 42 23 32 27 37 87 10 117 -16 17 -15 19 6
25 55 18 77 75 49 128 l-19 35 24 6 c26 7 55 51 55 84 0 11 -9 31 -20 44 l-19
25 25 12 c29 13 58 73 49 102 -4 10 -14 26 -22 35 -15 15 -15 17 0 25 52 30
66 73 40 126 l-18 38 30 26 c36 33 39 88 5 124 -21 22 -21 23 -3 29 26 8 53
58 48 87 -3 13 -13 35 -23 48 -17 23 -17 24 10 52 35 34 37 78 5 115 l-23 26
28 28 c38 38 38 82 -1 121 -16 16 -25 29 -19 29 20 0 47 46 48 81 0 25 -7 42
-25 59 l-24 23 24 29 c34 40 33 82 -4 118 l-28 29 23 22 c34 32 32 82 -4 118
-27 28 -27 29 -10 52 37 49 29 105 -18 130 -24 12 -24 12 -4 34 38 40 30 111
-15 135 l-25 13 20 31 c28 47 17 103 -26 126 -23 13 -23 15 -8 37 8 14 17 34
19 45 6 29 -22 77 -51 88 -23 9 -24 11 -10 26 40 40 22 127 -29 140 -25 6 -25
7 -10 31 33 50 11 124 -42 138 -24 6 -25 7 -8 26 28 30 22 89 -12 116 -15 13
-33 23 -40 23 -9 0 -8 8 3 28 17 33 18 56 2 85 -14 28 -38 46 -60 47 -15 0
-15 3 -2 29 25 51 6 105 -42 123 -35 12 -42 22 -24 33 6 3 10 24 10 45 0 31
-6 43 -31 65 -18 14 -38 24 -47 20 -11 -4 -12 -1 -6 12 5 10 8 37 8 60 0 47
-18 69 -67 79 -20 5 -25 10 -18 17 6 6 11 28 11 49 0 47 -35 88 -75 88 -22 0
-24 3 -15 19 14 27 13 57 -5 91 -12 23 -25 31 -56 36 -28 5 -37 10 -30 17 6 6
11 27 11 47 0 41 -28 73 -72 84 -24 5 -26 9 -21 45 5 35 2 44 -26 72 -23 23
-38 30 -56 27 -22 -5 -24 -2 -19 21 3 14 7 32 10 39 7 22 -50 75 -83 76 -29 1
-30 2 -25 43 4 35 0 46 -21 67 -16 16 -37 26 -55 26 -28 0 -29 2 -29 41 0 53
-36 92 -86 92 -32 0 -34 2 -27 26 8 31 -11 76 -39 91 -11 5 -33 10 -50 10 -28
0 -30 2 -25 28 10 55 -58 116 -108 97 -9 -4 -13 5 -12 27 2 59 -49 105 -101
92 -19 -5 -24 -2 -23 13 5 64 -48 118 -101 103 -26 -7 -27 -6 -28 28 -2 51
-40 86 -92 84 -39 -2 -41 -1 -41 29 0 44 -44 82 -91 77 -35 -3 -37 -2 -47 37
-7 27 -20 46 -40 57 -16 10 -31 16 -33 14 -2 -2 -18 -6 -35 -9 -29 -5 -31 -4
-26 18 3 18 -4 33 -27 56 -28 28 -37 31 -72 26 -36 -5 -40 -3 -45 21 -11 44
-43 72 -84 72 -20 0 -41 -5 -47 -11 -7 -7 -12 2 -17 30 -5 31 -13 44 -36 56
-34 18 -64 19 -91 5 -16 -9 -19 -7 -19 15 0 40 -41 75 -88 75 -21 0 -43 -5
-50 -12 -9 -9 -12 -7 -12 9 0 12 -12 35 -26 52 -19 23 -34 31 -59 31 -19 0
-37 -4 -40 -10 -11 -17 -24 -11 -31 15 -13 52 -85 81 -135 55 -15 -9 -19 -7
-19 5 0 9 -13 30 -29 46 -25 24 -36 28 -66 24 -21 -2 -43 -10 -51 -16 -11 -9
-14 -8 -14 7 -1 24 -18 47 -47 62 -29 16 -52 15 -85 -2 -20 -11 -28 -12 -28
-3 0 7 -10 25 -23 40 -27 34 -86 40 -116 12 -19 -17 -20 -16 -27 8 -13 53 -74
75 -128 48 -34 -18 -35 -18 -40 5 -13 49 -95 66 -137 28 -14 -12 -17 -11 -27
10 -13 30 -61 57 -90 51 -32 -6 -62 -24 -62 -38 -1 -7 -7 2 -14 19 -23 52
-104 68 -143 28 -12 -11 -18 -8 -42 18 -35 39 -88 43 -125 9 l-24 -23 -7 21
c-8 27 -55 52 -86 46 -13 -3 -35 -13 -48 -23 -23 -17 -24 -17 -52 10 -34 35
-78 37 -115 5 l-26 -23 -28 28 c-36 36 -81 37 -118 3 l-26 -25 -26 25 c-38 36
-90 34 -123 -4 l-24 -29 -13 23 c-7 14 -17 22 -21 19 -4 -2 -10 0 -14 6 -13
21 -66 11 -95 -18z"/>
</g>
</svg>
