<?xml version="1.0" encoding="utf-8"?>
<!-- Generator: Adobe Illustrator 25.3.1, SVG Export Plug-In . SVG Version: 6.00 Build 0)  -->
<svg version="1.1" xmlns="http://www.w3.org/2000/svg" xmlns:xlink="http://www.w3.org/1999/xlink" x="0px" y="0px"
	 viewBox="0 0 1133.9 283.5" style="enable-background:new 0 0 1133.9 283.5;" xml:space="preserve">
<style type="text/css">
	.st0{fill:#008D36;}
	.st1{fill:#9BB82C;}
	.st2{fill:url(#SVGID_1_);}
	.st3{fill:#00A6E7;}
	.st4{fill:#00A6E7;stroke:#FC0303;stroke-miterlimit:10;}
	.st5{fill:url(#SVGID_2_);}
	.st6{fill:#104D55;}
	.st7{fill:url(#SVGID_3_);}
	.st8{fill:#FFFFFF;}
</style>
<g id="Слой_15">
	<g id="Слой_1">
		<g>
			<path class="st0" d="M953,115.5c0.5-1.4-0.2-3-2.4-3.7c0,1,0,2,0.5,2.9C951.6,115.3,952.4,115.3,953,115.5z"/>
			<path class="st1" d="M939,138c-0.2,0-0.5,0.1-0.4,0.4c0,0.2,0,0.6,0.4,0.5c0.3,0,0.6-0.2,0.6-0.5C939.5,138,939.2,138,939,138z"
				/>
			<linearGradient id="SVGID_1_" gradientUnits="userSpaceOnUse" x1="991.468" y1="92.7222" x2="991.468" y2="187.024">
				<stop  offset="0" style="stop-color:#008D36"/>
				<stop  offset="8.957026e-02" style="stop-color:#038E36"/>
				<stop  offset="0.1677" style="stop-color:#0E9135"/>
				<stop  offset="0.2416" style="stop-color:#209733"/>
				<stop  offset="0.3129" style="stop-color:#399E31"/>
				<stop  offset="0.3823" style="stop-color:#5AA82F"/>
				<stop  offset="0.4494" style="stop-color:#81B42C"/>
				<stop  offset="0.5145" style="stop-color:#AFC228"/>
				<stop  offset="0.6933" style="stop-color:#FCE913"/>
				<stop  offset="0.7417" style="stop-color:#F7C119"/>
				<stop  offset="0.8171" style="stop-color:#F08A20"/>
				<stop  offset="0.882" style="stop-color:#EB6126"/>
				<stop  offset="0.9332" style="stop-color:#E8482A"/>
				<stop  offset="0.9642" style="stop-color:#E73F2B"/>
			</linearGradient>
			<path class="st2" d="M1037.8,128.9c-0.3,0.3-0.6,0.4-1,0.3c-0.3,0-0.3-0.2-0.1-0.3c0.1-0.1,0.2-0.2,0.2-0.3
				c0-0.1,0.1-0.1,0.1-0.2c-0.1-0.1-0.1-0.1-0.2-0.1c-0.6,0.2-1.2-0.2-1.8,0c-0.3,0.1-0.5-0.1-0.5-0.5c0-0.1,0-0.3,0-0.4
				c0-1-0.1-1.1-1-0.6c-0.6,0.3-1.2,0.8-1.6,1.4c-0.2-0.2-0.2-0.4-0.1-0.6c0-0.2,0-0.3-0.3-0.3c-0.6,0.1-1.1,0.3-1.3,0.9
				c-0.2,0.4-0.7,0.4-1,0.1c-0.3-0.2,0-0.5,0.1-0.7c0.1-0.2,0.3-0.2,0.5-0.2c0.3,0,0.5-0.1,0.8-0.2c0.5-0.3,0.6-0.8,1-1.1
				c0.1-0.1,0.1-0.2-0.1-0.2c-0.7-0.2-1.3-0.5-2-0.2c-0.3,0.2-0.7,0.4-1,0.6c-0.4-1-0.8-1.9-1.9-2.3c0.3-0.4,0.7-0.4,1-0.6
				c0.3-0.2,0.4-0.2,0.6,0.2c0.3,0.5,0.8,0.7,1.3,0.6c0.3-0.1,0.6-0.2,0.9-0.3c0.2-0.1,0.3-0.1,0.4,0.2c0.2,0.9,1,1.2,1.7,1.7
				c0.2,0.1,0.6,0.1,0.8-0.1c0.2-0.2,0.2-0.5,0.1-0.8c-0.2-0.3-0.2-0.7-0.4-0.9c-0.3-0.5,0-0.6,0.4-0.6c0.2,0,0.5,0,0.7,0
				c0.2,0,0.3,0.2,0.2,0.4c-0.1,0.8,0.4,1.2,0.9,1.5c0.3,0.2,0.4,0.1,0.5-0.2c0.1-0.4,0.1-0.7,0-1.1c0-0.1-0.2-0.3-0.1-0.4
				c0.2-0.1,0.4-0.1,0.6-0.1c0.2,0,0.2,0.2,0.2,0.4c-0.2,1,0.4,1.6,1,2.2c0.2,0.2,0.4,0.3,0.7,0.2c0.3-0.1,0.2-0.4,0.2-0.6
				c0-0.1,0-0.2,0-0.4c0-0.4,0.2-0.5,0.6-0.4c0.3,0.1,0.5,0.2,0.8,0.2c0.7,0,1.4,0,2.2,0c-0.3-0.3-0.7-0.4-0.9-0.8
				c-0.2-0.3-0.6-0.5-0.9-0.7c-0.5-0.4-0.5-0.4-0.1-0.9c0.3-0.4,0.2-0.8-0.3-0.9c-0.7-0.2-1.7,0.4-2,1c-0.2,0.4-0.4,0.6-0.9,0.5
				c0.1-0.3,0.3-0.4,0.4-0.6c0.3-0.3,0.4-0.6,0.5-1c0.1-0.4-0.1-0.6-0.5-0.6c-0.7,0-1.6,0.8-1.7,1.4c-0.1,0.6-0.2,0.7-0.9,0.4
				c0.1-0.2,0.2-0.3,0.3-0.5c0.5-0.9,0.5-1-0.5-1.3c0.1-0.2,0.2-0.3,0.3-0.5c0.3-0.6,0.2-0.8-0.5-0.9c-0.3,0-0.5-0.1-0.9-0.1
				c0.5-0.3,0.9-0.6,1.2-0.9c0.7-0.5,1-1.1,1-1.9c0-0.5-0.2-0.5-0.6-0.4c-0.4,0.2-0.7,0.3-1.1,0.5c-0.9,0.5-1.1,0.9-0.9,2
				c0.1,0.7-0.2,1.1-0.9,1.2c0-0.4,0-0.9,0-1.3c0-0.3-0.1-0.5-0.4-0.6c-0.3-0.1-0.5,0-0.6,0.2c-0.2,0.2-0.4,0.5-0.7,0.6
				c-0.2-0.4-0.3-0.8-0.5-1.1c-0.3-0.5-0.3-0.5,0.1-0.8c0.7-0.3,1.3-0.8,1.8-1.2c0.3-0.2,0.3-0.5,0-0.7c-0.2-0.1-0.4-0.1-0.4-0.3
				c0.1-0.2,0.3-0.2,0.5-0.3c0.1,0,0.3,0,0.5,0.1c0.5,0.1,1,0.1,1.5-0.1c0.7-0.3,1.2-0.7,1.5-1.4c0.1-0.2,0-0.4-0.2-0.4
				c-0.6,0-1.2-0.1-1.7,0c-0.8,0.1-1.4,0.5-1.7,1.3c-0.1,0.3-0.4,0.6-0.7,0.8c-0.3,0.2-0.4,0.1-0.4-0.2c0-0.3,0-0.7,0-1
				c0-0.9-0.4-1.7-0.9-2.6c-0.1,0.5-0.5,0.8-0.6,1.1c-0.1,0.6-0.1,1.2,0.1,1.8c0.2,0.5,0,0.8-0.5,1c-0.5,0.2-0.5-0.2-0.6-0.5
				c-0.1-0.2-0.2-0.4-0.4-0.4c-0.2,0-0.3,0.2-0.4,0.3c-0.3,0.6-0.6,1.2-0.1,1.9c0.1,0.1,0.1,0.3,0,0.4c-0.1,0.1-0.3,0.2-0.5,0.2
				c-0.2,0-0.2-0.2-0.2-0.4c0-0.1-0.1-0.3-0.1-0.5c-0.1-0.3-0.2-0.5-0.5-0.5c-0.3-0.1-0.3,0.2-0.4,0.4c-0.1,0.1-0.1,0.2-0.2,0.2
				c-0.1,0-0.1-0.2-0.2-0.2c-0.1-0.3-0.1-0.6-0.2-0.9c-0.1-0.3,0-0.5,0.4-0.5c0.5,0,0.5-0.2,0.4-0.6c-0.3-1-0.9-1.6-1.9-2
				c0.4-0.5,0.9-0.6,1.4-0.9c0.2-0.1,0.3,0,0.4,0.2c0.5,0.8,1,0.9,1.9,0.8c0.7-0.1,1.1-0.6,1.7-0.9c0.2-0.1,0.5-0.2,0.4-0.5
				c0-0.3-0.3-0.4-0.5-0.5c-0.2-0.1-0.4-0.1-0.5-0.2c-0.9-0.2-0.9-0.2-0.9-1.2c0-0.1,0-0.1,0-0.2c0-0.3,0-0.5-0.3-0.7
				c-0.3-0.1-0.5,0-0.7,0.2c-0.4,0.4-0.7,0.9-0.9,1.5c-0.1,0.7-0.7,0.9-1.3,1c-0.4,0.1-0.5-0.1-0.8-0.3c-0.2-0.2-0.3-0.4-0.4-0.7
				c-0.1-0.5-0.7-0.9-1.1-0.8c-0.5,0.1-0.6,0.6-0.4,1c0.4,1,0.1,1.7-0.7,2.2c-0.1,0-0.1,0.1-0.1,0.1c-0.1-0.1-0.2-0.3-0.2-0.4
				c-0.2-0.8-0.4-1.6-1.3-1.8c-0.1,0-0.2-0.1-0.1-0.3c0-0.1,0.1-0.2,0.2-0.2c0.9-0.1,1.3-0.8,1.8-1.5c0.2-0.3,0.1-0.5-0.2-0.6
				c-0.1,0-0.2-0.1-0.4-0.1c-0.5-0.1-0.3-0.4-0.3-0.7c0-0.4,0.2-0.3,0.4-0.2c0.8,0.1,1.4-0.1,1.9-0.7c0.4-0.4,0.7-0.9,1.1-1.3
				c-1.4-0.1-2.5,0.3-3.3,1.4c-0.1-0.1-0.1-0.2-0.2-0.3c-0.3-0.6-0.4-0.7-1-0.2c-0.6,0.4-1.2,0.9-1.6,1.5c-0.1,0.2-0.3,0.4-0.6,0.1
				c-0.3-0.3-0.6-0.2-0.7,0.3c-0.1,0.3-0.1,0.5-0.2,0.8c-0.2,0.5-0.4,0.6-0.9,0.4c-0.1-0.1-0.2-0.1-0.3,0c-0.1,0.1-0.1,0.2,0,0.3
				c0.1,0.2,0.2,0.4,0.3,0.7c0.1,0.2,0.1,0.4-0.2,0.4c-0.9,0-1.7,0.4-2.5,0.7c-0.2,0.1-0.4,0.2-0.7,0.3c0.2-0.6,0.4-1.1,0.6-1.6
				c0.2-0.5,0.4-1,0.4-1.6c0-0.2,0.1-0.2,0.3-0.1c0.9,0.8,1.9,0.7,2.8,0c0.3-0.3,0.3-0.5-0.1-0.7c-0.1-0.1-0.4-0.1-0.4-0.4
				c0.1-0.5-0.3-0.5-0.6-0.5c-0.2,0-0.4,0-0.7,0c-0.1,0-0.3,0.1-0.4-0.1c0-0.1,0-0.2,0-0.3c0.1-0.2,0.3-0.2,0.5-0.1
				c0.8,0.3,1.4,0,2-0.6c0.2-0.2,0.5-0.4,0.3-0.7c-0.2-0.2-0.5-0.2-0.8-0.2c-0.5,0-0.9,0-1.4,0c0-0.1,0-0.1,0-0.2
				c0.4-0.3,0.8-0.2,1.3-0.3c0.5-0.1,1-0.5,0.9-0.9c-0.1-0.7,0.1-1.3,0.4-1.9c0.1-0.3,0.3-0.6,0-0.8c-0.3-0.2-0.6-0.1-0.8,0.1
				c-0.6,0.4-1.2,0.5-1.7-0.2c-0.4,0.4-0.7,0.9-0.8,1.4c-0.3,1-0.3,1-1.3,0.7c-0.3-0.1-0.5-0.1-0.6,0.3c-0.1,0.6,0.7,1.7,1.2,1.9
				c0.2,0.1,0.4,0.1,0.6,0.2c0.3,0.3,0.2,0.6,0,0.8c-0.2,0.2-0.3-0.1-0.4-0.2c-0.3-0.3-0.7-0.5-1.1-0.6c-0.4,0-0.5,0.1-0.4,0.5
				c0.2,0.7,0.6,1.2,1.3,1.3c-0.5,0.8-1,0.8-1.5,0.1c-0.6-0.7-0.9-0.7-1.7-0.3c-0.2,0.1-0.4,0.2-0.6,0.4c-0.2,0.1-0.4,0.4-0.6,0.1
				c-0.2-0.2-0.3-0.6,0-0.9c0.1-0.1,0.2-0.3,0.4-0.3c0.4-0.2,0.7-0.6,0.9-1c0.6-1,0.8-2.1,0.8-3.3c0-0.3,0-0.5-0.1-0.8
				c-0.1-0.4-0.3-0.5-0.7-0.3c-0.4,0.3-0.8,0.5-1.1,0.9c-0.4,0.4-0.8,0.5-1.1,0c-0.6-0.6-1.2-1-2.1-0.9c-0.2,0-0.3-0.1-0.2-0.3
				c0.1-0.2,0.2-0.4-0.1-0.5c-0.3,0-0.7,0.1-0.7,0.4c0.1,0.6-0.5,0.9-0.6,1.4c-0.1,0.2-0.2,0.2-0.3,0.1c-0.2-0.1-0.2-0.2-0.1-0.4
				c0.2-0.3,0.3-0.6,0.4-0.9c0.1-0.4,0.3-0.8,0.8-1c0.2-0.1,0.3-0.2,0-0.4c-0.4-0.3-0.6-0.7-0.7-1.2c-0.1-0.6-0.4-1.2-0.6-1.8
				c-0.5,0.5-0.8,1-0.7,1.6c0,1.1-0.3,1.5-1.4,1.5c0.1-2.7-0.1-3.1-1.3-3.7c-0.2,0.2-0.2,0.5-0.2,0.8c-0.4,1.7-0.4,1.7,1,2.7
				c0.2,0.1,0.3,0.2,0.2,0.5c-0.2,0.2-0.3,0.1-0.5,0c-0.4-0.3-0.9-0.6-1.3-0.9c-0.6-0.4-1.1-0.1-1.1,0.7c0,0.3,0,0.6,0.1,0.9
				c0.1,0.5,0,0.6-0.5,0.4c-0.4-0.2-0.7-0.1-1,0.2c-0.7,0.7-1.3,1.5-1.8,2.4c-0.1,0.2-0.2,0.3-0.4,0.3c-0.2-0.1-0.3-0.3-0.2-0.5
				c0.1-0.6,0.1-1.1,0.2-1.7c0-0.3,0.3-0.4,0.5-0.4c0.5,0,0.8-0.3,1.2-0.6c0.2-0.2,0.4-0.4,0.3-0.7c-0.1-0.3-0.4-0.2-0.6-0.2
				c-0.1,0-0.2,0-0.3,0c-0.2,0-0.4,0.1-0.4-0.2c0-0.2,0.1-0.4,0.3-0.4c0.3,0,0.5-0.2,0.7-0.3c0.2-0.2,0.5-0.4,0.3-0.7
				c-0.2-0.3-0.6-0.2-0.8-0.1c-0.6,0.5-1,0.5-1.5-0.2c-0.2-0.3-0.7-0.2-0.7,0.1c-0.1,0.5-0.2,1.1,0.4,1.4c0.4,0.2,0.5,0.6,0.3,1.1
				c-0.1,0.2-0.1,0.4-0.2,0.6c-0.2,0.6-0.3,0.6-0.8,0.2c-0.7-0.5-1.4-0.9-2.1-1.3c-0.6-0.3-0.9-0.1-0.9,0.6c0,0.5-0.1,0.9-0.2,1.4
				c-1-0.5-1.3-1.6-0.7-2.4c0.1-0.2,0.3-0.4,0.5-0.6c0.9-1,1-2.1,0.8-3.4c-0.1-0.4-0.3-0.5-0.7-0.3c-0.3,0.2-0.6,0.4-0.9,0.6
				c0.1-0.6,0.2-1.1,0.3-1.7c0.1-0.5-0.1-0.7-0.6-0.5c-0.4,0.1-0.8,0.3-1.1,0.6c-0.7,0.6-1.4,1-2.3,0.4c-0.2-0.1-0.4-0.1-0.4,0.2
				c0,0.5,0.5,1.2,1,1.3c0.8,0.2,0.9,0.4,0.4,1.2c-0.5-0.7-1.2-1.1-1.9-1.5c-0.5-0.2-0.7-0.1-0.7,0.4c-0.1,1.2,0,2.4,1.1,3.3
				c0.3,0.2,0.2,0.4-0.2,0.5c-0.3,0.1-0.6,0.1-0.9,0.2c-0.7,0.1-0.8,0.1-0.7-0.6c0-0.4-0.1-0.5-0.5-0.5c-0.4,0-0.8,0.1-1.2,0.3
				c-0.3,0.2-0.6,0-0.7-0.3c-0.2-0.5-0.6-0.9-1-1.3c-0.5-0.4-0.9-0.3-1.1,0.4c-0.1,0.5-0.2,0.9-0.2,1.4c0,0.6-0.3,0.8-0.9,0.5
				c-0.2-0.1-0.4-0.2-0.6-0.3c-0.4-0.1-0.6,0-0.6,0.5c0.1,0.4,0,0.7-0.3,1c-0.3,0.3-0.6,0.5-1,0.8c0.1-0.3,0.1-0.5,0.1-0.7
				c0.1-0.4,0.1-0.9-0.1-1.3c-0.1-0.2-0.2-0.6-0.5-0.6c-0.4,0-0.7,0.3-0.8,0.6c-0.2,0.4-0.3,0.9-0.3,1.4c-0.4-0.3-0.6-0.6-0.3-0.9
				c0.6-0.7,0.2-1.3-0.1-1.9c-0.1-0.3-0.4-0.5-0.7-0.5c-0.3,0-0.3,0.4-0.4,0.6c0,0,0,0.1,0,0.1c-0.1,0.4-0.3,0.5-0.8,0.4
				c-0.7-0.1-1.4-0.4-2.1-0.1c0.3,0.7,1,1.5,1.7,1.8c0.3,0.1,0.4,0.2,0.1,0.5c-0.4,0.3-1.1,0.5-0.7,1.3c-0.3,0.6-0.3,1.3-0.7,1.8
				c-0.2,0.3-0.5,0.3-0.8,0.2c-0.3-0.2-0.7-0.3-1-0.4c-0.6-0.1-0.8,0.1-0.7,0.7c0,0.3,0.2,0.5,0.3,0.7c0.3,0.4,0.7,0.8,1,1.1
				c-0.9,0.3-1.8,0.4-2.7,0.5c0.3,0.4,0.7,0.6,1.1,0.9c0.5,0.3,1.1,0.4,1.6,0.8c0.9,0.7,1.1,1.8,1.3,2.9c0,0.2,0,0.3-0.2,0.2
				c0,0-0.1,0-0.1,0c-0.3,0.2-0.4,0-0.5-0.2c-0.5-0.5-1.1-0.8-1.7-1c-0.5-0.1-0.7,0-0.6,0.5c0.1,0.5-0.1,0.7-0.6,0.5
				c-0.2,0-0.4-0.1-0.5-0.1c-0.3,0-0.3-0.1-0.1-0.3c0.3-0.4,0.4-0.9,0.5-1.5c0.1-0.9-0.1-1.8-0.2-2.7c0-0.2-0.1-0.4-0.2-0.5
				c-0.3-0.5-0.7-0.4-1,0c-0.2,0.2-0.3,0.5-0.5,0.7c-0.1,0.1-0.1,0.1-0.2,0.1c-0.1,0-0.1-0.1-0.1-0.2c0-0.4,0.2-0.6,0.4-0.9
				c0.3-0.3,0.7-0.5,0.8-1c0.1-1-0.2-1.9-0.5-2.8c-0.8,0.7-1.3,1.4-1.6,2.3c-0.2,0.4-0.2,0.9,0.1,1.3c0.4,0.4,0.5,0.9,0.5,1.5
				c0,0.2,0,0.4-0.3,0.4c-0.5,0.1-0.7,0.5-0.7,1c0,0.3,0.1,0.6,0,0.9c-0.1,0.4-0.3,0.4-0.5,0.2c-0.2-0.3-0.5-0.4-0.7-0.6
				c-0.3-0.3-0.4-0.6-0.2-1c0.6-0.8,0.4-1.7,0.1-2.5c-0.1-0.2-0.1-0.7-0.3-0.7c-0.3,0-0.4,0.4-0.5,0.7c-0.2,0.5-0.4,1-0.6,1.6
				c-0.6-0.4-0.6-0.5-0.3-1.1c0.2-0.5,0.2-1.2-0.1-1.6c-0.1-0.1-0.2-0.2-0.4-0.1c-0.4,0.4-0.7,0.1-1-0.1c-0.2-0.2-0.4-0.2-0.6-0.3
				c-0.2-0.1-0.4-0.1-0.6,0c-0.2,0.2-0.1,0.4,0,0.6c0.1,0.6,0.5,1.1,0.9,1.6c-0.5,0.1-0.9,0-1.2,0c-0.2,0-0.6-0.1-0.7,0.2
				c-0.1,0.3,0.3,0.3,0.5,0.5c1,0.7,1.1,1.1,0.3,2c0,0-0.1,0.1-0.1,0.1c-0.2,0.2-0.1,0.4,0.2,0.5c0.9,0.2,1.9,0.2,2.7-0.4
				c0.6-0.5,0.8-0.5,1.3,0.1c0.1,0.1,0.3,0.2,0.3,0.4c-0.9,0.2-1.8,0.2-2.6,0.7c-0.2,0.1-0.4,0.2-0.1,0.3c0.4,0.3,0.3,0.4-0.1,0.6
				c-0.2,0.1-0.3,0.2-0.3,0.4c0,0.2,0.2,0.3,0.4,0.4c0.7,0.3,1.4,0.3,2.2,0.1c-0.2,0.5-0.1,0.8,0,1.2c0.2,0.8,0,1.2-0.8,1.3
				c-0.5,0.1-0.6,0.2-0.3,0.6c0.1,0.2,0.4,0.4,0.5,0.6c0.2,0.2,0.3,0.3,0.4,0.6c-0.9-0.1-1.4-0.6-1.4-1.4c0-0.9-0.5-1.5-1.1-2.1
				c-0.3-0.3-0.5-0.3-0.7,0.1c-0.2,0.7-0.5,1.3-0.4,2c0,0.2,0,0.4-0.2,0.4c-0.2,0-0.4-0.1-0.4-0.3c0-0.3-0.1-0.6-0.2-0.9
				c0-0.2-0.1-0.4-0.3-0.4c-0.2,0-0.2,0.2-0.3,0.4c-0.1,0.2-0.1,0.4-0.2,0.6c-0.1,0.3,0,0.7-0.3,0.9c-0.2,0.2-0.6,0.3-0.6,0.6
				c0,0-0.1,0.1-0.2,0.1c-0.4,0-0.7-0.1-0.9-0.4c-0.2-0.4-0.6-0.6-1-0.8c-0.3-0.1-0.5-0.1-0.4,0.3c0.1,0.8-0.3,1.4-1,1.7
				c-0.1,0-0.2,0-0.2,0.2c1.3,0.8,2,0.8,3.1-0.3c0,0,0.1-0.1,0.1-0.1c0.3-0.2,0.7-0.1,1,0.1c0.3,0.2-0.1,0.4-0.2,0.5
				c-0.4,0.7-0.6,1.4-0.8,2.1c0,0.1-0.1,0.3,0,0.4c0.2,0.1,0.3,0,0.5-0.1c0.5-0.4,0.6-0.4,0.8,0.2c0.1,0.4,0.3,0.5,0.6,0.2
				c0.3-0.3,0.4-0.6,0.5-1c0.1-0.2,0-0.5,0.3-0.4c0.3,0.1,0.4,0.3,0.3,0.6c-0.1,0.6-0.4,1.1-0.8,1.7c-0.3,0.4-0.5,0.6-1,0.3
				c-0.6-0.3-0.7-0.1-0.7,0.5c0,0.6,0.3,1.1,0.4,1.8c-1.5-0.4-1.7-1.8-2.4-2.9c-0.5,0.4-0.5,0.9-0.6,1.4c0,0.1,0,0.3-0.1,0.4
				c-0.1,0-0.3,0-0.4-0.1c-0.2-0.1-0.1-0.3,0-0.5c0.5-0.7,0.2-1.4-0.3-2c-0.2-0.2-0.3-0.5-0.6-0.4c-0.3,0.1-0.4,0.4-0.5,0.6
				c-0.1,0.5-0.2,0.9-0.1,1.4c-0.3-0.1-0.6-0.2-0.5-0.5c0.3-1-0.2-1.6-0.9-2.1c-0.2-0.1-0.4-0.3-0.6-0.2c-0.2,0.1-0.2,0.3-0.2,0.5
				c0,0.7-0.2,0.8-0.9,0.8c-0.6,0-1.2,0.1-1.8,0.4c0.4,0.5,1,0.9,1.5,1.1c1,0.4,1,0.4,0.4,1.3c-0.2,0.3-0.2,0.5,0.2,0.6
				c0.9,0.2,2.2-0.4,2.5-1.2c0.2-0.4,0.4-0.4,0.7-0.2c0.2,0.1,0.3,0.2,0.4,0.4c-0.4,0.2-0.7,0.5-1,0.9c-0.1,0.2-0.2,0.4-0.1,0.6
				c0.1,0.2,0.4,0.2,0.6,0.2c0.5-0.2,1,0,1.4,0.3c0.7,0.5,1.5,0.6,2.3,0.2c0.3-0.2,0.6-0.1,0.8,0.2c0.2,0.3,0.4,0.5,0.7,0.5
				c-0.2,0.3-0.5,0.6-0.8,0.4c-0.8-0.3-1.7-0.2-2.5,0.1c-1,0.4-1.9,0.2-2.6-0.7c-0.9-1-2.3-1.3-3.8-0.6c0.4,0.4,0.8,0.7,1.2,1
				c1.1,1.1,1.5,1.2,2.9,0.6c0.4-0.2,0.6-0.1,0.7,0.3c0.1,0.4,0.3,0.6,0.6,0.8c0.2,0.2,0.4,0.3,0.7,0.6c-0.9,0.1-1.6,0.3-2.2-0.5
				c-0.2-0.3-0.5-0.2-0.7,0.2c-0.2,0.5-0.4,1-0.4,1.5c0,0.4-0.2,0.6-0.7,0.6c-0.5-0.1-0.6,0.2-0.4,0.5c0.1,0.4,0.3,0.7,0.4,1.2
				c-0.7-0.3-1.4-0.6-1.8-1.1c-0.9-1-1.9-1.1-3.1-0.9c-0.4,0.1-0.4,0.2-0.2,0.5c0.2,0.4,0.6,0.7,0.9,1c0.4,0.4,0.4,0.6,0,1
				c-0.5,0.4-1,0.7-1.3,1.3c-0.2,0.3-0.6,0.5-0.9,1c0.9-0.1,1.7-0.2,2.5-0.5c1-0.4,1.9-0.5,2.9,0c0.3,0.2,0.4,0.3,0.2,0.7
				c-0.4,0.5-0.6,1.1-0.6,1.7c0,0.4,0.2,0.6,0.6,0.5c1.1-0.4,2.1-1,2.4-2.4c0.2,0.5,0.5,0.7,0.8,1c0.5,0.4,0.9,0.7,1.4,1.1
				c0.3,0.3,0.3,0.5-0.1,0.7c-0.6,0.3-1.3,0.6-1.9,0.8c-0.2,0.1-0.4,0.1-0.5-0.2c-0.4-0.9-0.8-1-1.6-0.5c-0.6,0.3-1.2,0.5-1.8,0.3
				c-0.4-0.1-0.9,0-1.3,0.1c-0.2,0-0.4,0.1-0.4,0.4c0,0.3,0.1,0.4,0.3,0.5c0.4,0.2,0.8,0.5,1.1,0.7c0.4,0.2,0.6,0.6,0.5,1.1
				c-0.1,0.6,0.1,0.7,0.7,0.6c0.5-0.1,1-0.2,1.5-0.2c-0.1,0.4-0.3,0.6-0.6,0.6c-0.9,0.1-1.6,0.4-1.9,1.3c-0.3,0.6-0.4,1.2-0.7,1.8
				c0.9-0.2,1.7-0.3,2.4-0.9c0.7-0.6,0.8-1.5,1-2.3c0.5,0.5,0.5,1.3,1.1,1.7c0.2-0.5,0.5-1,0.5-1.6c0-0.2,0-0.3,0.1-0.5
				c0.4-0.7,0.4-1.5,0-2.1c-0.1-0.1-0.2-0.2-0.1-0.3c0.1-0.1,0.2-0.2,0.4-0.2c0.3,0,0.4,0.1,0.4,0.4c0,0.7-0.1,1.4,0.3,2
				c0.2,0.2,0.3,0.5,0.6,0.4c0.3,0,0.5-0.2,0.6-0.5c0.1-0.3,0.2-0.6,0.4-0.8c0.6,0.5,0.7,0.5,1.1-0.2c0.1-0.1,0.1-0.2,0.2-0.3
				c0.2-0.2,0.5-0.2,0.7,0c0.2,0.1,0.5,0.3,0.4,0.6c-0.2,0.7-0.9,1.2-1.6,1.2c-0.1,0-0.3,0-0.4,0c-0.5,0-0.6,0.4-0.3,0.7
				c0.4,0.4,0.8,0.9,1.4,1c0.1,0,0.2,0.1,0.2,0.2c0,0.1-0.1,0.2-0.2,0.2c-0.2,0-0.4,0-0.5-0.2c-0.1-0.2-0.2-0.2-0.4-0.3
				c-0.8-0.5-1.6-0.2-2.3,0c-0.4,0.1-0.4,0.5-0.1,0.8c0.1,0.2,0.3,0.2,0.5,0.3c0.4,0.2,0.5,0.4,0.2,0.8c-0.2,0.3-0.4,0.7-0.6,1.1
				c-0.1,0.2-0.3,0.5,0,0.8c0.3,0.3,0.6,0.2,0.9,0c0.4-0.2,0.8-0.5,1.2-0.7c0.2-0.2,0.5-0.4,0.7-0.4c0.4,0,0.3,0.5,0.4,0.7
				c0.1,0.2,0.3,0.4,0.5,0.4c0.3,0,0.4-0.1,0.5-0.3c0.3-0.8,0.8-1.6,0-2.5c-0.3-0.3-0.2-0.6,0.2-0.8c0.2-0.1,0.4-0.2,0.6-0.2
				c-0.1,0.6,0.1,1.1,0.5,1.6c0.2,0.3,0.5,0.3,0.7,0c0.3-0.4,0.5-0.8,0.4-1.3c-0.1-0.4,0.5-0.9,1-0.8c0.1,0,0.2,0.1,0.2,0.2
				c0,0.4,0.2,0.4,0.5,0.4c0.8,0,1.4-0.4,2.2-0.6c-0.2,0.9-0.3,0.9-1.2,0.9c-0.5,0-0.9,0.3-1.3,0.6c-0.1,0.1-0.2,0.3-0.1,0.4
				c0.1,0.1,0.2,0.2,0.3,0.2c0.3,0,0.7,0,1-0.1c0.2-0.1,0.3,0,0.4,0.2c0,0.2-0.1,0.4-0.3,0.4c-0.1,0-0.2,0-0.3,0
				c-0.7-0.2-1.2,0.1-1.7,0.6c-0.1,0.2-0.4,0.3-0.3,0.6c0.1,0.3,0.4,0.3,0.6,0.4c0.1,0,0.3,0,0.4,0c0.4-0.1,0.8-0.1,1.2-0.2
				c-0.2,0.4-0.3,0.6-0.7,0.5c-0.7-0.1-1.1,0.4-1.5,0.9c-0.2,0.2-0.4,0.5-0.2,0.7c0.2,0.3,0.5,0.2,0.8,0.1c0.5-0.2,0.7,0.1,0.8,0.5
				c0,0.1,0,0.3,0.1,0.4c0.3,0.2,0.7,0.5,1,0.4c0.3,0,0.3-0.5,0.4-0.8c0.1-0.3,0-0.7,0.2-0.9c0.3-0.2,0.6,0.1,0.8,0.2
				c0.3,0.1,0.3-0.2,0.5-0.3c0.1-0.1,0.2-0.2,0-0.3c-0.5-0.3-0.5-0.8-0.4-1.3c-0.4,0.1-0.8-0.1-1.2-0.2c-0.6-0.2-0.6-0.3-0.2-0.8
				c0.1-0.1,0.1-0.3,0.2-0.4c0.4,0.6,0.6,0.6,1.2,0.8c0.2,0.1,0.3,0,0.4-0.2c0.3-0.4,0-1-0.5-1.3c-0.6-0.3-0.6-0.3-0.3-1
				c0.1-0.2,0.2-0.5,0.3-0.7c0.1-0.2,0.3-0.4,0.6-0.4c0,0.2,0,0.3,0,0.4c-0.2,0.5,0.1,0.7,0.5,0.8c0.9,0.2,2-0.3,2.3-1.3
				c0-0.1,0-0.3,0.2-0.3c0.2,0,0.3,0.1,0.3,0.2c0.2,0.4,0.6,0.4,0.9,0.5c0.2,0,0.6-0.8,0.6-1.1c-0.1-0.2,0-0.4,0.2-0.6
				c0.2-0.1,0.4,0,0.5,0.1c0.1,0,0.2,0.1,0.3,0.1c-0.1-0.5,0.3-0.9,0.2-1.4c-0.3-1.3-0.1-2.4,0.8-3.4c0.1-0.1,0.2-0.2,0.1-0.3
				c-0.1-0.1-0.3,0-0.4,0c-0.3,0.2-0.4,0.6-0.5,0.9c-0.2,0.7-0.2,0.7-0.9,0.6c-0.9-0.1-1.6-0.7-2.6-0.6c-0.2,0-0.3-0.1-0.3-0.3
				c0.1-0.2,0.3-0.1,0.4-0.1c0.3,0.2,0.6,0.3,0.9,0.3c0.9,0,1.7-0.5,2.5-1c0.4-0.2,0.3-0.6-0.2-0.8c-0.3-0.1-0.7-0.2-1-0.4
				c-0.1,0-0.4,0-0.2-0.3c0.1-0.2,0.2-0.7,0.5-0.6c1.5,0.5,3.2,0.3,4.7,0.8c1.8,0.6,3.7,0.9,5.5,1.4c0.2,0.1,0.4,0.2,0.5,0.4
				c0.5,1,1.1,1.9,2,2.7c1.1,1,2.2,1.8,3.2,3c1.1,1.3,2,2.6,3.1,3.9c1,1.3,1.2,2.8,1.1,4.3c-0.1,2-0.6,4.1-1.2,6
				c-0.9,3.2-2.3,6.1-4.5,8.6c-0.2,0.2-0.4,0.3-0.7,0.3c-0.8,0-1.7-0.1-2.4-0.5c-1.4-0.7-5.5-3.7-9.1-3.4c-1.1,0.1-3,1.5-3.4,2
				c-0.1,0.1-0.2,0.1-0.4,0.1c-1-0.3-2-0.1-3,0.3c-1,0.4-2,0.6-3,0.9c-7.6,2.2-11.4-3.8-11.5-3.8c1.2,1.9,3,4,7,4.7
				c2.6,0.5,5.1,0.1,7.6-0.6c0.6-0.2,1.2-0.3,1.8-0.3c0.3,0,0.3,0.1,0.2,0.3c-0.2,0.4-1.1,2.1-1.1,2.1s-0.6-0.2-1-0.3
				c-2.3-0.7-4.1,0-5.3,2.1c-0.1,0.2-0.3,0.5-0.4,0.7c-0.1,0.2-0.2,0.3-0.5,0.2c-0.9-0.3-3.8-1.3-5.7-4.9c0.7,2.2,2.8,4.4,5.7,5.4
				c-0.4,0.6-1.4,1.4-1.4,1.4s0.8-0.5,1.6-1.3c0,0,0,0,0,0c1,0.3,2.1,0.6,3.2,0.6c0.7,0,1.3,0,2,0c-0.4,1.1-1.8,2.9-3.5,3.5
				c0.1,0,2.3-0.7,4-3.4c0.1-0.2,0.2-0.2,0.4-0.3c0.8-0.1,1.8-0.4,2.6-0.7c0,0,1,1.3,1.4,1.8c0.7,1,1.3,2.1,2.2,2.9l-1.1,2.3
				c-0.6-0.3-1.5-0.7-2.2-0.9c-0.3-0.1-0.9-2.6-1-3.1c0.1,0.4,0.4,2.4,0.6,3c0,0-2.6-0.2-4.3,0.4c0,0,1.4-0.4,3.1-0.2
				c0.4,0,0.8,0,1.2,0.1c0.3,0.1,0.6,1.8,1.4,2.8c1.1,1.5,2.5,2.5,4.4,2.4c0.6,0,1.2,0,1.7-0.4c0.1-0.1,0.2-0.1,0.3,0
				c0.4,0.2,0.7,0.5,0.8,1c0.1,0.8,0.6,2.2,0.6,2.2s-0.3-2-0.3-2.1c0.1-0.3,0.1-0.4,0.4-0.2c1.6,0.7,3.4,0.9,5.1,0.6
				c0.3-0.1,0.5,0,0.7,0.2c0.8,0.7,1.6,1.5,2.7,1.9c0.1,0,0.2,0.1,0.1,0.2c0,0.1-1.9,0.7-1.8,0.8c0.3-0.1,2.5-0.7,2.8-0.6
				c1.8,0.4,3.5,0.2,4.9-1.3c0.2-0.2,0.3-0.1,0.3,0.1c0.2,0.4,0.5,2.1,0.6,2.5c0-0.1,0.1-2.1-0.4-3c-0.1-0.2,0.2-0.5,0.3-0.7
				c0.5-0.7,0.4-1.1,0.6-1.9c0.2-1.1,0.3-2.1,0.5-3.2c0.1,0.4,0.1,0.9,0.2,1.3c0.1,1.3,0.3,2.6,1,3.8c0.3,0.5,0.1,0.9-0.1,1.5
				c-0.2,0.9-0.2,2.2-0.1,2.2c0.1-0.5,0.5-2.3,0.8-2.7c1.2,1.4,2.7,1.8,4.5,1.5c0.7-0.1,1.4-0.1,2.1,0.1c0.1,0,1.1,0.4,1.2,0.3
				c-0.3-0.1-1.5-0.7-1.8-0.8c1.2-0.5,2.1-1.3,3-2.1c0.2-0.2,0.5-0.2,0.8-0.2c0.8,0.2,1.6,0.2,2.4,0.1c1.1-0.1,2.1-0.5,3.1-0.9
				c0,0.3-0.5,2.4-0.4,2.4c0.1-0.4,0.9-2.3,0.9-2.7c0-0.3,0.8-0.2,1-0.2c2.1,0.6,3.9,0.1,5.3-1.5c0.9-0.9,1.4-2,1.8-3.2
				c0.1-0.3,0.2-0.4,0.5-0.4c0.8-0.2,3-0.1,4.1,0.5c-1.3-1.1-4.5-0.7-4.5-0.7s0.6-2.8,0.6-2.9c0,0.3-0.7,2.9-1,3
				c-0.6,0.2-1.3,0.6-1.9,0.9c-0.3,0.1-0.4,0.1-0.5-0.2c-0.2-0.5-0.4-1-0.7-1.4c-0.1-0.1-0.4-0.4-0.1-0.6c0.5-0.5,0.8-1.2,1.3-1.8
				c0.7-0.8,1.2-1.8,1.8-2.7c0.2-0.3,0.4-0.4,0.7-0.3c0.8,0.3,1.6,0.5,2.4,0.6c0.2,0,0.3,0.1,0.4,0.2c1.2,2.6,3.7,3.5,3.9,3.4
				c-1.3-0.2-3.4-2.8-3.3-3.4c0.1-0.2,0.2-0.1,0.3-0.1c1.4,0.1,2.8,0,4.7-0.5c0,0,0.5,0.6,1.4,1.2c-0.7-0.7-1.1-1.3-1.1-1.3
				c1.8-0.8,2.7-1,4.6-3.3c0.7-0.9,1.2-2.3,1.2-2.3c-0.1,0.1-1,1.7-1,1.7c-1.1,1.4-2.5,2.5-4.1,3.2c-0.2,0.1-0.9,0.4-0.9,0.4
				s-1.2-3-3.7-3.3c-1-0.1-1.9,0.1-2.8,0.5c-0.2,0.1-0.3,0.1-0.5-0.2c-0.3-0.6-0.6-1.3-1-1.9c-0.1-0.2-0.1-0.3,0.2-0.3
				c0.5,0,1,0,1.5,0.2c2.2,0.7,4.4,1.1,6.7,0.9c5.7-0.5,7.9-4.6,7.8-4.5c-2,2.5-4.7,3.5-7,3.7c-2.4,0.2-4.6-0.3-6.9-1.2
				c-0.9-0.3-1.8-0.6-2.8-0.4c-0.4,0.1-0.7,0-1-0.3c-1.3-1.3-3-2-4.9-1.7c-1.3,0.2-2.4,0.7-3.5,1.3c-1.1,0.6-2.2,1.3-3.3,1.9
				c-0.9,0.4-1.9,0.8-3,0.7c-0.2,0-0.4-0.1-0.6-0.3c-1.4-1.6-2.5-3.3-3.3-5.2c-1-2.2-1.6-4.5-2-6.9c-0.2-1-0.5-2-0.4-3.1
				c0.1-2,0.6-3.9,1.3-5.8c0.3-0.8,0.5-0.9,1.4-0.8c1.5,0.1,2.9,0.5,4.1,1.3c0.8,0.5,1.8,0.7,2.7,0.4c1.1-0.4,2.2-0.4,3.4-0.4
				c0.7,0,1.4,0,2.2,0c-0.2-0.1-0.2-0.1-0.2-0.2c-1.8-0.4-3.5-0.4-5.2,0.2c-0.8,0.3-1.6,0.3-2.3-0.1c-1.2-0.7-2.4-1.2-3.8-1.4
				c1.4-0.3,2.8-0.9,4.1-1.6c0.3-0.2,0.7-0.1,1,0.2c0.4,0.3,0.8,0.6,1.2,0.9c0.8,0.6,1.7,0.9,2.8,0.7c0.2,0,0.4,0.1,0.6,0.1
				c1,0.4,1.9,0.7,3,0.7c0.2,0,0.2,0,0.5-0.2c-1.1-0.1-2.1-0.3-3.2-0.8c0.8-0.1,1.5-0.2,2.2-0.6c0.3-0.2,0.7-0.3,0.6-0.8
				c-0.6,0.7-1.4,0.7-2.1,0.9c-1,0.2-1.8,0.1-2.7-0.3c-1-0.5-2-0.9-2.9-1.6c-0.5-0.4-1.1-0.2-1.6-0.1c-0.6,0.1-1.2,0.5-1.8,0.7
				c-0.5,0.2-1,0.4-1.5,0.3c0.2-0.3,0.4-0.4,0.7-0.5c1.6-1,3.4-1.7,5.2-2.2c0.9-0.3,1.8-0.7,2.7-1.1c0.2-0.1,0.5-0.2,0.7-0.2
				c1.1-0.1,2.1-0.1,3.2-0.1c-0.2,0.2-0.4,0.5-0.3,0.8c0,0.3,0.2,0.6,0.3,0.8c0.2,0.3,0.3,0.7,0.5,1c0.7-0.8,0.8-1.6,0.4-2.5
				c0-0.1,0-0.1-0.1-0.2c0.6,0,1.2-0.1,1.8-0.1c1.1-0.1,2.1-0.5,3-1c0.5-0.3,0.8-0.2,1.2,0.2c0.5,0.5,0.9,1.2,1.6,1.5
				c0.2,0.1,0.1,0.2,0,0.4c-0.4,0.3-0.8,0.4-1.3,0.3c-0.4-0.1-0.8-0.1-1.2-0.1c-0.8,0.1-1.7,0.1-2.5,0.2c-0.3,0-0.5,0.1-0.3,0.5
				c0.1,0.2,0.1,0.4,0.2,0.6c0,0,0,0.1,0,0.1c0.2,0.3,0,0.4-0.2,0.5c-0.8,0.2-1.5,0.5-2.3,0.9c0,0.4,0.1,0.6,0.5,0.7
				c0.3,0.1,0.5,0.2,0.8,0.2c0.7,0.1,1.4,0.2,1.2,1.2c0,0.1,0,0.2,0.2,0.2c0.1,0,0.2-0.1,0.2-0.2c0.1-0.3,0.2-0.6,0.4-0.8
				c0.1-0.1,0.2-0.2,0.3-0.1c0.1,0.1,0,0.2,0,0.3c-0.1,0.2-0.3,0.4-0.3,0.7c0.2-0.1,0.5-0.2,0.6-0.3c0.5-0.4,0.7-0.5,1.1-0.1
				c0.3,0.3,0.5,0.2,0.7,0c0.4-0.4,0.8-0.6,1.3-0.5c0,0,0.1,0,0.1-0.1c-0.2-0.3-0.5-0.1-0.7-0.3c0.3-0.1,0.5-0.4,0.8-0.2
				c0.4,0.3,0.8,0.2,1.2,0c0.2-0.1,0.4-0.3,0.5,0c0.1,0.6,0.6,1,0.9,1.4c0.1,0.2,0.4,0.3,0.2,0.6c-0.2,0.3-0.4,0-0.6,0
				c0.2,0.7,0.2,0.8,0.9,0.3c0.1-0.1,0.2-0.1,0.3-0.1c0.1,0.1,0.1,0.2,0.1,0.4c-0.1,0.5-0.1,1.1-0.2,1.6c-0.1,0.6,0.1,0.8,0.7,0.7
				c1-0.2,1-0.2,1.2,0.8c0,0.1,0,0.1,0,0.2c0.1,0.5,0.4,0.6,0.8,0.3c0.3-0.3,0.6-0.6,0.8-0.9c0.2-0.3,0.4-0.6,0.2-1
				c-0.1-0.2,0-0.3,0.1-0.4c0.2-0.1,0.3-0.1,0.5,0c0.2,0.1,0.2,0.3,0.1,0.5c-0.2,0.2-0.1,0.4-0.1,0.7c0,0.8,0.5,1.5,1,2.2
				c0.2,0.2,0.3,0.7,0.6,0.6c0.3-0.1,0.3-0.5,0.3-0.8c0.1-0.5,0.3-0.7,0.8-0.6c0.2,0,0.4,0,0.5-0.1c0.1-0.2,0.1-0.4-0.1-0.5
				c-0.4-0.5-0.5-1.3-1.2-1.5c0.2-0.2,0.4-0.2,0.5-0.2c0.2-0.1,0.3-0.2,0.2-0.4c-0.2-0.5,0.1-0.5,0.4-0.6c0.3-0.1,0.6-0.2,0.9-0.3
				c0.4-0.1,0.2-0.2,0.1-0.4c-0.2-0.2-0.6-0.1-0.5-0.4c0.1-0.2,0.4-0.3,0.6-0.5c0.1-0.1,0.3-0.2,0.4-0.3c0.3-0.2,0.6-0.5,0.5-0.9
				c-0.1-0.4-0.6-0.4-0.9-0.4c-0.2,0-0.4,0-0.5-0.3c-0.2-0.7,0.1-1.4,0.8-1.6c0.7-0.2,1.3-0.7,1.8-1.2c-0.2-0.3-1.1-0.1-0.7-0.8
				c0.7,0,1.3,0,2,0c0.2,0,0.3,0,0.3,0.3c-0.1,0.4,0.1,0.8,0.2,1.2c0.1,0.2,0.1,0.4,0.4,0.5c0.3,0,0.4-0.2,0.5-0.4
				c0.4-0.7,0.4-0.7,1.1-0.2c0.3,0.2,0.5,0.4,0.8,0.5c0.3,0.2,0.6,0.3,1,0.3c0-0.2-0.1-0.4-0.1-0.6c-0.1-0.2-0.1-0.4-0.2-0.6
				c-0.4-0.9-0.4-1,0.3-1.5c0.3-0.2,0.3-0.4,0-0.6c-0.7-0.5-1.5-0.5-2.2,0c0-0.2,0-0.4,0.2-0.5c0.2-0.1,0.3-0.3,0.5-0.4
				c0.2-0.1,0.1-0.3,0.1-0.5c-0.1-0.3-0.3-0.1-0.4-0.1c-0.2-0.1-0.4,0-0.5-0.2c-0.4-0.8-0.7-1.7-0.9-2.6c0.3,0.2,0.6,0.5,0.8,0.7
				c0.3,0.2,0.6,0.5,0.9,0.6c0.2,0.1,0.4,0.3,0.5,0.1c0.1-0.1,0.1-0.4,0.1-0.6c0,0,0-0.1,0-0.1c-0.2-0.5,0-0.9,0.4-1.1
				c0.4-0.3,0.8-0.6,1.3-0.8c0.2-0.1,0.4-0.2,0.2-0.5c-0.4-0.4-1.4-0.4-1.8,0c-0.3,0.3-0.5,0.5-0.8,0.1c-0.4-0.3-0.4-0.6,0-0.9
				c0.1-0.1,0.2-0.2,0.3-0.3c0.6-0.7,0.9-0.7,1.7-0.3c0.3,0.2,0.6,0.5,0.9,0.5c1.2,0.2,2.2-0.3,3.3-0.7c-0.8-0.5-1.4-0.9-2.2-1.1
				C1039.1,128.3,1038.4,128.2,1037.8,128.9z M953,132c-0.1,0.3-0.4,0.2-0.6,0.2c-1.4,0-2-0.6-2.2-2c0-0.3-0.1-0.5-0.2-0.8
				c0-0.1-0.1-0.3,0.1-0.3c0.1-0.1,0.2,0,0.3,0.2c0.6,0.9,1.4,1.5,2.2,2.1C952.8,131.5,953.1,131.6,953,132z M964.4,139.6
				c0.5-0.4,0.7,0.3,1.2,0.4c-0.4,0.2-0.6,0.8-1,0.4C964.4,140.2,964.2,139.8,964.4,139.6z M1026.6,117.4c0.1-0.1,0.2-0.2,0.3-0.2
				c0.2,0,0.9,0.8,0.9,1c0,0-0.1,0.1-0.1,0.1c-0.1,0.1-0.2,0-0.2,0c-0.3-0.3-0.6-0.5-0.9-0.8
				C1026.5,117.6,1026.5,117.5,1026.6,117.4z M1024.7,117.4c0.1-0.3,0.1-0.6,0.2-0.9c0.3,0.1,0.5,0.3,0.7,0.4c0.3,0.2,0.3,0.4,0,0.5
				c-0.2,0.1-0.5,0.2-0.8,0.2C1024.7,117.6,1024.7,117.5,1024.7,117.4z M1024.3,118.6c0.1-0.2,0-0.6,0.4-0.6c0.4,0,0.3,0.3,0.4,0.6
				c0,0.3-0.3,0.3-0.5,0.4C1024.3,119,1024.3,118.8,1024.3,118.6z M1022.9,114.5c0.2-0.2,0.3-0.1,0.4,0.1c0.2,0.4,0.5,0.7,0.8,1
				c0.2,0.2,0.2,0.4,0,0.6c-0.2,0.2-0.3,0.4-0.4,0.7c-0.1,0.7-0.5,0.7-1,0.8c-0.2,0-0.3-0.1-0.3-0.3c0-0.2-0.1-0.5-0.2-0.7
				c-0.3-0.7-0.5-0.9-1.4-1C1021.5,115.5,1022.2,115,1022.9,114.5z M1018.9,117.6c0.5-0.1,1-0.3,1.6-0.5c0.1,1.4-0.2,1.8-1.2,1.8
				c0.1-0.5,0.2-0.9-0.4-1c-0.1,0-0.1-0.1-0.1-0.1C1018.7,117.7,1018.8,117.6,1018.9,117.6z M1015.9,109.7c0.4,0.2,0.7,0.4,1.1,0.6
				c0.3,0.2,0.6,0.4,0.5,0.8c0,0.3,0.2,0.4,0.3,0.6c0.3,0.4,0.3,0.5-0.1,0.8c0,0-0.1,0-0.1,0c-0.2-0.9-0.7-1.5-1.5-1.9
				C1015.7,110.4,1015.9,110,1015.9,109.7z M1016,118.9c-0.2,0.4-0.3,0.8-0.5,1.2C1015.2,119.4,1015.7,119.3,1016,118.9z
				 M1015.1,124.4c0.3,0,0.5,0.1,0.6,0.5c0.3,0.9-0.3,1.6-0.7,2.4c-0.2-0.9-0.3-1.6-0.2-2.4C1014.8,124.6,1014.8,124.4,1015.1,124.4
				z M1012.6,133.4c0.3,0.1,0.7,0.2,1,0.2c0,0.2-0.2,0.2-0.3,0.2c-1.2,0.3-2.2,0.8-3.1,1.6c-0.2,0.2-0.4,0.4-0.7,0
				c-0.2-0.3-0.4-0.5,0-0.8c0.2,0.1,0.2,0.5,0.6,0.5c0.1-0.2,0-0.4-0.1-0.6c-0.2-0.4-0.1-0.6,0.2-0.9c0.2-0.2,0.4-0.5,0.6-0.7
				c0.6-0.4,0.9-1,1.3-1.6c0,0,0,0,0,0c0,0,0,0,0,0c0,0,0,0,0,0c-0.7-0.1-1.5-0.1-2.2,0c-0.5,0-0.9,0.3-1.1,0.7
				c-0.2,0.4-0.4,0.5-0.8,0.4c-0.1,0-0.3,0-0.4,0c0.4-1,1.2-1.6,1.9-2.3c0.1,0.2,0.1,0.4,0.1,0.6c0.1,0.5,0.3,0.6,0.7,0.2
				c0.3-0.2,0.4-0.6,0.8-0.9c0.2,0.5,0.8,0.8,0.9,1.4c0,0,0,0,0,0c0,0,0,0,0,0c0.4,0,0.6,0.3,1,0.4c0.4,0.1,0.5,0,0.5-0.3
				c0-0.5-0.1-1-0.3-1.5c-0.1-0.2-0.1-0.4,0.1-0.6c0.2-0.1,0.4-0.2,0.6-0.1c0.2,0.1,0.2,0.3,0.2,0.5c0.1,0.6,0,1.2,0.5,1.7
				c0.2,0.2-0.1,0.3-0.2,0.3c-0.7,0.3-1.4,0.6-1.9,1.1C1012.3,133.2,1012.2,133.3,1012.6,133.4z M1009,134.4
				c-0.1-0.2-0.3-0.3-0.4-0.5c-0.3-0.4-0.4-0.5-0.9-0.6c0.7-0.2,1.6,0.3,1.6,1c0,0.1,0,0.1-0.1,0.2
				C1009.1,134.6,1009.1,134.4,1009,134.4z M1008.6,136.3c-0.2,0.1-0.5,0.2-0.7,0.2c0.3-0.4,0.6-0.7,1-1.1
				C1009.1,136.1,1009.1,136.1,1008.6,136.3z M1009.2,133c0.5-0.1,1-0.1,1.4-0.2c-0.3,0.3-0.6,0.7-0.9,1
				C1009.6,133.5,1009.4,133.3,1009.2,133z M1007.8,116c-0.6,0.4-1.2,0.7-1.9,1.1c0.3-0.9,0.4-1.7,1.4-2.1v0c0.1,0,0.2-0.1,0.2-0.1
				c1-0.2,1.8-0.9,2.7-1.5c-0.4,1-1,1.8-2,2.3c-0.1,0-0.1,0-0.2,0C1008.1,115.9,1007.9,115.9,1007.8,116z M1007.4,121.5
				c0.7,0.2,0.8,0.6,0.3,1.2c-0.2,0.2-0.4,0.3-0.5,0.5c-0.2,0.1-0.4,0.2-0.6,0c-0.2-0.2-0.4-0.2-0.6-0.1c-0.2-0.1-0.4,0-0.4-0.4
				C1005.9,121.2,1006.1,121.1,1007.4,121.5z M1006.5,127.3c0.6-0.2,1.1-0.3,1.6-0.7c0.1-0.1,0.3-0.3,0.5,0c0.2,0.3-0.1,0.3-0.2,0.4
				c-0.3,0.7-0.9,0.9-1.6,0.8c-0.1,0-0.2,0-0.3,0c-0.2,0-0.4-0.1-0.4-0.3C1006.2,127.3,1006.4,127.3,1006.5,127.3z M1008.3,120
				c0.1-0.7,0.7-0.7,1.3-0.7c0.1,0,0.3-0.1,0.5-0.1c-0.4,0.6-0.7,1.3-0.7,2c-0.1,0-0.1,0-0.1,0
				C1008.8,120.9,1008.2,120.7,1008.3,120z M1009.6,125.7c0.2-0.1,0.3-0.1,0.5,0c0.1,0,0.1,0,0.2,0c0.3-0.1,0.5,0.2,0.7,0.4
				c0.2,0.2-0.2,0.3-0.3,0.4c-0.5,0.5-0.8,0.5-1.2,0.1C1009,126.1,1009,125.9,1009.6,125.7z M1012.2,122.2L1012.2,122.2
				C1012.2,122.2,1012.2,122.2,1012.2,122.2C1012.2,122.2,1012.2,122.2,1012.2,122.2c-0.1-0.1-0.3-0.1-0.1-0.3
				c0.1-0.2,0.2-0.4,0.4-0.4c0.1,0,0.2,0.2,0.1,0.3C1012.4,121.9,1012.2,122,1012.2,122.2C1012.2,122.2,1012.2,122.2,1012.2,122.2
				C1012.2,122.2,1012.2,122.2,1012.2,122.2c0.2-0.1,0.3-0.1,0.4-0.1c0.1,0.5,0,0.6-0.7,0.7C1012,122.6,1012.2,122.4,1012.2,122.2
				C1012.2,122.2,1012.2,122.2,1012.2,122.2z M1013.1,127.8c-0.7-0.2-1.2,0.6-1.8,0.3C1012,127.4,1012.5,127.3,1013.1,127.8z
				 M1014,134.1c0.1-0.4,0.5-0.3,0.8-0.4c0.1-0.1,0.2,0.1,0.2,0.2c-0.1,0.3-0.5,0.3-0.7,0.4C1014.1,134.2,1013.9,134.2,1014,134.1z
				 M1011.7,116.1c0.6-0.4,0.8-1.1,0.7-1.8c-0.1-0.4,0-0.6,0.4-0.6c0.4,0,0.8-0.2,1.1-0.5c0.6-0.4,0.8-0.4,0.8,0.4
				c0,0.2,0,0.4,0,0.5c0,1-0.1,1.2-0.9,1.5c-0.7,0.2-1.4,0.3-2,0.7c-0.1,0.1-0.2,0-0.2,0C1011.5,116.2,1011.6,116.2,1011.7,116.1z
				 M1012.7,119.3c0.5-0.2,0.5-0.2,0.8,0.2c-0.4,0.2-0.9,0.2-1.2,0.4c-0.5,0.3-0.6,0.5-0.3,1c0.1,0.1,0.2,0.2,0,0.4
				c-0.5,0.5-0.9,1.1-1.3,1.7c-0.3-0.3-0.5-0.6-0.1-1c0.2-0.2,0.1-0.4,0-0.7c-0.3-0.6-0.3-0.8,0.3-1.2
				C1011.5,119.9,1012.1,119.6,1012.7,119.3z M1008.9,108.6c0.8-0.3,1.6-0.6,2.2-1.4c0.1,0.7-0.2,1.1-0.5,1.4
				c-0.9,1-2.1,1.7-3.4,2.2C1007.4,109.7,1007.9,108.9,1008.9,108.6z M1006.3,101.1c0.2,0.3,0.4,0.5,0.6,0.7c0.1,0.1,0.5,0.8,0.5,1
				c0,0.2-0.1,0.4-0.3,0.7c-0.1-0.2-0.2-0.4-0.3-0.6c0-0.1-0.3-0.6-0.4-0.7c-0.3-0.4-0.6-0.8-1.1-1.1
				C1005.8,100.8,1006,100.7,1006.3,101.1z M1006.6,129.7c-1.3,1.7-2.6,3.2-4.6,4.1c0.1-0.5,0.3-1,0.6-1.4c0.4-0.4,0.5-0.9,1-1.3
				c0.2-0.2,0.4-0.2,0.6-0.1c0.3,0.2,0.5,0.4,0.8,0.1c0.3-0.3,0.1-0.6,0-0.9c-0.2-0.7-0.5-1.1-1.3-1.2c-0.3,0-0.5-0.3-0.5-0.7
				C1004.4,128.8,1005.4,129.5,1006.6,129.7z M998.4,118.3c0,0,0.1,0,0.1,0c0.1,0,0.1,0.1,0.1,0.2c0,0.1-0.1,0.2-0.1,0.3
				c0.1-0.1,0.1-0.2,0.2-0.2c0.1-0.1,0.2-0.2,0.3-0.1c0.2,0,0.1,0.2,0.2,0.3c0,0.2,0.1,0.4,0.1,0.6c0,0.2,0.1,0.4-0.1,0.5
				c-0.3,0.1-0.6,0.2-0.8,0.1c-0.2-0.1,0-0.4,0-0.6c0-0.1,0.1-0.2,0.1-0.3C998.2,118.7,998.3,118.3,998.4,118.3z M998.6,118.1
				c0-0.2,0.2-0.3,0.4-0.4c-0.1,0.2-0.1,0.4-0.3,0.4C998.6,118.2,998.6,118.1,998.6,118.1z M998.3,125.5c0.2,0.5,0.2,0.6-0.4,0.5
				c-0.2,0-0.3-0.1-0.3-0.3c0-0.3,0.1-0.6,0.1-1C998.1,124.9,998.2,125.2,998.3,125.5z M998.7,133c-0.1-0.5-0.3-1-0.4-1.6
				C998.9,132,999,132.3,998.7,133z M998,135.6c0.2,0.7,1.3,1.4,2.1,1.3c0,0.2,0,0.3-0.1,0.5c-0.2,0.4-0.3,0.7-0.8,0.8
				c-0.9,0.2-1.8,0.7-2.6,1.1c-0.7,0.4-1.4,0.8-2.2,0.9c-0.3,0.1-0.6,0.1-1,0c-1-0.1-1.1-0.2-1-1.2c0-0.9,0.1-1.8,0.4-2.7
				c0.1-0.3,0.2-0.6,0.3-0.8c0.3-0.5,0.6-1,1.3-0.9c0.6,0.1,1.1-0.2,1.7-0.3C997.2,134.3,997.7,134.6,998,135.6z M999.9,135.4
				c-0.5-0.2-0.5-0.6-0.5-1c0-0.4,0.1-0.8,0.1-1.2c0-0.8-0.1-1.5-0.5-2.1c-0.1-0.2-0.2-0.4-0.2-0.6c-0.1-0.2,0-0.4,0.3-0.5
				c0.4-0.1,0.8-0.3,1.3,0c0.4,0.2,0.9,0.2,1.3,0c0,0.5,0,1.1,0,1.6c0,0.4,0,0.8,0.3,1c0.1,0.1,0.1,0.1,0,0.2
				c-0.3,0.7-0.3,1.5-0.8,2.2C1001,135.3,1000.4,135.5,999.9,135.4z M1003.9,120.4c0,0.8-0.2,1.3-0.8,1.7c-0.3,0.2-0.5,0.5-0.6,0.8
				c-0.1,0.1-0.1,0.3-0.2,0.3c-0.2-0.1-0.4-0.2-0.6-0.4c-0.1-0.2,0.1-0.3,0.2-0.4c0,0,0.1,0,0.1-0.1c0.8-0.5,0.8-1-0.1-1.5
				c-0.3-0.2-0.6-0.4-0.8-0.6c-0.2-0.2-0.2-0.3,0.1-0.3c0.3-0.1,0.6,0,0.7,0.4c0.2,0.6,0.5,0.6,0.8,0.1c0-0.1,0.1-0.1,0.1-0.2
				c0.2-0.4,0.5-0.5,0.9-0.4C1004.2,120,1003.8,120.3,1003.9,120.4z M1002.7,110.4c0.2-0.2,0.3-0.3,0.6-0.1c0.2,0.1,0.5,0.1,0.8,0.1
				c0.5-0.1,0.5-0.1,0.5,0.6c0.1,0.5-0.1,0.8-0.7,0.9c-0.1,0-0.2,0.1-0.2,0c-0.4-0.3-0.7-0.3-1.2-0.1c-0.2,0.1-0.3-0.1-0.3-0.3
				c0-0.2-0.4-0.4-0.1-0.6C1002.4,110.8,1002.5,110.6,1002.7,110.4z M1001.2,107.5c0.1-0.2,0-0.4,0.3-0.4c0.3,0,0.7,0.4,0.6,0.8
				c0,0.2-0.1,0.4-0.3,0.3C1001.6,108,1001.2,108,1001.2,107.5z M1000.5,112.8c0.2-0.1,0.8,0.5,0.7,0.7c0,0.3-0.1,0.6-0.5,0.6
				c-0.3,0-0.6-0.2-0.6-0.6C1000.3,113.3,1000.2,112.9,1000.5,112.8z M1000.1,110.8c-0.2-0.3,0-0.8-0.5-0.8c-0.4,0-0.6,0.4-1,0.6
				c0.4-0.6,0.3-1.1,0.3-1.7c0-0.1,0-0.3,0.2-0.2C999.9,108.9,1000.5,109.9,1000.1,110.8z M998.4,104c0.3-0.1,1.1,0.6,1.1,0.9
				c0,0.2-0.2,0.2-0.3,0.3c-0.2,0.1-0.3,0-0.3-0.1c-0.2-0.3-0.2-0.6-0.6-0.8C998.1,104.2,998.3,104.1,998.4,104z M999.1,115.8
				c0.2,0.3,0.2,0.6,0,0.9c-0.2,0.3-0.5,0.3-0.8,0.2c-0.3-0.1-0.6-0.2-0.8-0.2c0.1-0.3,0.2-0.7,0.2-1c0-0.3,0-0.7,0-1
				C998.3,114.9,998.8,115.2,999.1,115.8z M996.8,112.5c0.2-0.7,0.5-1.2,1.3-1.4c-0.4,0.5-0.6,1.1-0.7,1.6c-0.2,0.6-0.4,1.2-1.2,1.5
				C996.6,113.6,996.7,113.1,996.8,112.5z M996.8,130.1c0.1-0.3,0.1-0.7,0.5-0.9c0.3,0.6,0.2,1-0.2,1.1
				C996.8,130.3,996.8,130.2,996.8,130.1z M996.4,124.5c0.2-0.2,0.4-0.2,0.6-0.1c0.1,0,0,0.1,0,0.2
				C996.8,124.7,996.6,124.6,996.4,124.5z M996.1,128.9c0-0.1,0-0.2,0.1-0.2c0.1,0,0.1,0.1,0.1,0.2c-0.1,0.3-0.1,0.7-0.4,1.1
				C996,129.5,996,129.2,996.1,128.9z M997.3,130.7c0.1-0.1,0.3-0.2,0.3,0.1c0.1,0.8,0.3,1.6,0.2,2.4c0,0.7-0.2,1-0.9,1
				c-0.7,0.1-1.3,0-2.1,0c0.5-0.6,0.8-1.2,1-1.9C996.1,131.6,996.6,131.1,997.3,130.7z M994.7,125.3c0.1-0.1,0.2-0.1,0.3-0.1
				c0.1,0,0.1,0.2,0.1,0.3c0,0.1,0,0.2,0,0.3c-0.1,0.3-0.2,0.6-0.3,0.9C994.4,126.2,994.4,125.6,994.7,125.3z M994.6,115.3
				c-0.1,1-0.2,1.9-0.4,2.9C993.9,117.2,993.9,116.3,994.6,115.3z M993.6,126.7c0.4-0.4,0.4-0.4,0.8,0.1
				C994.2,126.9,993.9,126.8,993.6,126.7z M993.4,128.6c-0.1-0.4-0.1-0.6-0.1-0.9c0-0.2-0.1-0.4-0.2-0.6c0.2-0.1,0.5-0.1,0.5,0.1
				C993.7,127.6,993.7,128.1,993.4,128.6z M992.9,109.4c0.6-0.4,0.9-0.2,1.1,0.5c0.1,0.5,0.2,1,0.3,1.5c0.1,0.4-0.3,0.5-0.5,0.7
				c-0.1-0.5-0.1-0.9-0.1-1.3c0-0.5-0.2-0.9-0.7-0.9c-0.2,0-0.4,0-0.4-0.2C992.6,109.4,992.8,109.4,992.9,109.4z M992,106.2
				c0-0.2-0.1-0.5-0.1-0.8C992.3,105.7,992.3,105.9,992,106.2z M992.5,116.8c0,0.2,0,0.4-0.2,0.6c-0.2,0.2-0.4,0-0.6-0.1
				c-0.1-0.1-0.2-0.1-0.3-0.1c0.1-0.2,0.6-0.2,0.4-0.4c-0.1-0.3-0.4,0-0.6,0.1c-0.5,0.1-0.9,0.3-1.4,0.4c-0.2,0.1-0.4,0-0.3-0.3
				c0-0.3,0.1-0.6,0.1-1c0-0.5,0.5-0.3,0.7-0.4c0.7-0.4,1.2-0.4,1.6,0.3C992,116.2,992.5,116.3,992.5,116.8z M989.2,126.2
				c-0.2-0.3-0.1-0.6,0.3-1c0.2,1.7,0.3,1.7,1.5,1.4c-0.2,1-0.8,1.5-1.7,1.7C989.5,127.6,989.6,126.9,989.2,126.2z M988.6,123.2
				c-0.2-0.1-0.2-0.2-0.2-0.4c0-0.2,0.7-1.2,0.8-1.3c0.1,0,0.1,0,0.2,0c0.1,0.1,0.2,0.2,0.1,0.3c-0.8,0.9,0.2,1.1,0.5,1.6
				c0.1,0.1,0.3,0.1,0.3,0.3c-0.1,0.3-0.4,0.4-0.6,0.5c-0.2,0.1-0.3-0.1-0.3-0.2C989.2,123.6,988.9,123.4,988.6,123.2z M989.1,127.3
				c0,0.4-0.1,0.7-0.3,1.1c0-0.4-0.1-0.8-0.1-1.1c0-0.2-0.1-0.4,0.2-0.4C989.1,126.9,989,127.1,989.1,127.3z M990.1,119.1
				c-0.1-0.2-0.3-0.3-0.4,0c-0.1,0.3-0.4,0.3-0.6,0.1c-0.3-0.2-0.1-0.4,0-0.5c0.3-0.6,0.8-0.9,1.3-1.1c0.2,0.6,0.4,1.1,0.7,1.6
				c0.2,0.3,0.2,0.5-0.2,1C990.7,119.8,990.4,119.4,990.1,119.1z M988.5,106.4c0.2-0.1,0.4-0.2,0.5-0.4c0.5-0.9,1.4-1,2.2-1.2
				c0.2,0,0.3,0,0.4,0.2c0.1,0.3,0.1,0.5,0.2,0.8c0,0.3-0.1,0.3-0.3,0.2c-0.5-0.4-0.8-0.2-1,0.3c-0.3,0.5-0.9,0.7-1.4,1
				c-0.4,0.2-0.4-0.4-0.6-0.5C988.2,106.6,988.3,106.4,988.5,106.4z M989.5,110.9c-0.3,1-0.3,2.1-1.6,2.3
				C987.6,111.8,987.9,111.3,989.5,110.9z M987.6,116.9c0.2-0.1,0.3-0.3,0.5-0.4c0.1,0.2,0.1,0.4,0,0.5c-0.2,1-0.4,2-0.5,3.1
				c0,0.4-0.2,0.7-0.6,0.7c-0.2-1.2-0.1-2.3,0.1-3.4C987.2,117.1,987.5,117,987.6,116.9z M983.6,131.4c-0.7-0.3-1-1.1-1.8-1.3
				c-0.1,0-0.1-0.1-0.1-0.2c0.1-0.1,0.1-0.2,0.3-0.1c0.3,0.1,0.5,0.1,0.7,0.3c1.1,0.9,2.3,1.6,3.1,2.9c0.5,0.8,0.9,1.7,1.1,2.5
				c0,0.2,0,0.3,0,0.4c0,0.4-0.2,0.5-0.6,0.3c-1.1-0.5-2-1.3-3-2c-0.1-0.1-0.2-0.1-0.2-0.2c0-0.6,0-1.1-0.1-1.7
				c0-0.3,0.3-0.3,0.5-0.4c0.1,0,0.2,0,0.2-0.1C983.8,131.5,983.7,131.4,983.6,131.4z M982.7,118.4c-0.4-0.5-0.7-0.8-1-1.2
				c-0.1-0.1-0.1-0.2,0-0.3c0.2-0.1,0.2-0.4,0.4-0.7C982.3,117,982.7,117.6,982.7,118.4z M982.2,114.5c0.5,0.3,0.7,0.6,0.6,1.2
				C982.6,115.2,982.4,114.9,982.2,114.5z M982.4,118.7c0.1,0.3,0.1,0.3-0.2,0.3c-0.1,0-0.3-0.1-0.4-0.1c-0.8,0-0.8,0-0.8-0.9
				c0,0,0-0.2,0-0.3c0-0.2,0.1-0.4,0.3-0.4c0.2,0,0.2,0.2,0.3,0.3C981.9,117.9,982.2,118.3,982.4,118.7z M980.8,114.2
				c0.5-0.2,0.6,0.2,0.6,0.5C981.2,114.5,981,114.4,980.8,114.2z M981.4,121.5c-0.1,0.4-0.1,0.7-0.1,1
				C980.7,121.9,980.7,121.8,981.4,121.5z M982.2,125.1c0.2,0,0.3,0.1,0.3,0.3c-0.1,0.7,0.1,1.3-0.2,2.1c-0.5-0.9-0.6-1.8-1.3-2.6
				C981.4,124.9,981.8,125,982.2,125.1z M985.8,127.9c0.5,0.4,0.9,0.7,1.4,1C986.3,129.2,986.3,129.2,985.8,127.9z M987.4,113.6
				c-0.1,0.1-0.2,0-0.3-0.1c-0.1-0.1-0.2-0.2-0.1-0.4c0.1-0.2,0.2-0.4,0.4-0.5c0,0.2,0.1,0.4,0.1,0.6
				C987.5,113.3,987.5,113.5,987.4,113.6z M986.6,101.1c0.3-0.3,0.8-0.1,0.8,0.3c0.1,0.6-0.1,1.1-0.7,1.5c-0.1-0.2-0.3-0.5-0.4-0.7
				C986.1,101.7,986.1,101.5,986.6,101.1z M984,100.3c0.7,1,0.8,2,0.6,3.2C984.2,102.4,983.9,101.4,984,100.3z M984.3,117
				c0.6,0,1.1,0.1,1.7,0.2c0.2,0,0.4,0.1,0.3,0.3c-0.3,1.2-0.3,2.4-0.8,3.5c0,0.1-0.1,0.1-0.1,0.2c-0.5-0.4-0.7-0.9-0.6-1.5
				c0.1-0.8-0.2-1.6-0.7-2.2c-0.1-0.1-0.3-0.2-0.2-0.4C984,116.9,984.2,117,984.3,117z M982.3,104.4c0.5-0.2,0.9,0.1,0.9,0.6
				c0,0.3,0,0.5,0,0.8c0,0.1,0,0.1,0.1,0.2c-0.3,0.1-0.6,0.1-0.8,0.1c-0.5,0.1-0.7,0-0.8-0.6C981.7,105.2,981.9,104.6,982.3,104.4z
				 M982,106.8c0.2,0.7,0.7,1.1,1.2,1.4c0.4,0.3,0.7,0.6,0.8,1.2c0,0.2,0,0.4-0.2,0.5c-0.2,0.1-0.4-0.1-0.4-0.3
				c-0.1-0.2-0.2-0.4-0.4-0.3c-0.2,0-0.4,0.2-0.5,0.4c-0.1,0.4-0.2,0.8-0.3,1.3c0,0.2-0.1,0.4-0.4,0.4c-0.2,0-0.3-0.2-0.3-0.4
				c0-0.4,0.2-0.8-0.2-1.1c0,0,0.1-0.2,0.2-0.3c0,0,0.1-0.1,0.1-0.1c0.2-0.3,0.5-0.7,0.4-1c-0.1-0.2-0.6,0-0.9,0
				C981.3,107.9,981.6,107.4,982,106.8z M981.1,110.1c0,0.3,0,0.5,0,0.8C980.6,110.7,980.8,110.4,981.1,110.1z M979.9,108.2
				c0.3,0.1,0.5,0.3,0.8,0.2c-0.2,0.2-0.4,0.4-0.7,0.3C979.9,108.7,979.9,108.5,979.9,108.2z M980.3,117c0.1,0.5,0.2,0.9,0.2,1.3
				c0,0.3-0.2,0.6-0.5,0.7c-0.2,0-0.4,0.1-0.5,0c-0.1-0.2-0.1-0.4,0-0.6C979.7,117.9,979.9,117.5,980.3,117z M978.8,129.6
				c-0.2-0.1-0.3-0.3-0.3-0.5c0-0.2,0.2-0.2,0.3-0.3c0.2-0.1,0.4-0.1,0.8-0.2c0,0,0.2,0,0.3,0.1c0.1,0.1-0.1,0.3-0.2,0.4
				C979.6,129.6,979.3,129.8,978.8,129.6z M979.6,132.2c-0.8-0.3-0.8-0.3-0.3-0.9C979.4,131.6,979.5,131.9,979.6,132.2z
				 M978.5,121.3c-0.8,0.4-0.8,0.4-1.2-0.4c-0.1-0.3-0.2-0.5-0.3-0.8c-0.1-0.2,0-0.4,0.1-0.6c0.2-0.2,0.3,0,0.5,0
				c0.4,0,0.5,0.3,0.6,0.6c0.2,0.4,0.6,0.6,0.7,1c0,0-0.1,0-0.2,0.1C978.7,121.2,978.6,121.3,978.5,121.3z M978.5,123.6
				c0,0,0,0.1-0.1,0.1c-0.3-0.2-0.5-0.4-0.9-0.6C978.2,122.8,978.3,123.4,978.5,123.6z M974.6,123.8c-0.3-0.3-0.2-0.7-0.1-1.1
				c0-0.2,0.1-0.2,0.3-0.1c0.7,0.3,1.3,0.6,2,0.9c0.2,0.1,0.3,0.2,0.3,0.4c0.1,0.5,0.1,1.1,0.2,1.6c-0.5-0.1-0.5-0.5-0.6-0.8
				c-0.1-0.4-0.4-0.5-0.8-0.4C975.3,124.5,975,124.1,974.6,123.8z M974.7,129.7c-0.1,0.2,0,0.6-0.3,0.6c-0.3,0-0.5-0.1-0.6-0.4
				c0-0.1,0.6-0.5,0.7-0.5C974.7,129.4,974.8,129.6,974.7,129.7z M977,123.5c-0.8-0.4-1.5-0.7-2.1-1c-0.3-0.1-0.3-0.3-0.2-0.5
				c0.3-0.7,0.7-1.3,1.3-1.7c0.2-0.2,0.3-0.2,0.5,0.1c0.1,0.3,0.3,0.5,0.5,0.8c0.2,0.4,0.5,0.7,0.1,1.1
				C976.8,122.5,977,123,977,123.5z M979,123.7c-0.2-0.1-0.3-0.4-0.4-0.6C979.1,123.1,979.2,123.2,979,123.7z M979.5,116.3
				c0,0-0.2,0.1-0.2,0c-0.2-0.2-0.1-0.4-0.1-0.6C979.3,116,979.5,116.1,979.5,116.3z M978.2,109.4c0.9-0.9,0.9-0.9,1.1-2.5
				c0.1,0.7,0,1.4,0.1,2c0,0.1,0,0.2-0.1,0.3c-0.3,0.2-0.6,0.3-0.8,0.5c-0.1,0.1-0.2,0.1-0.3,0C978.1,109.7,978,109.6,978.2,109.4z
				 M978.2,113.9c0-0.2,0-0.3-0.1-0.5c-0.2-0.3-0.3-0.5,0.2-0.7c0.1,0,0.1-0.4,0.4-0.4c-0.1,0.2-0.1,0.3-0.1,0.5
				c-0.1,0.4-0.2,0.8,0.1,1.3c0.4,0.6,0.4,1.4,0.4,2.1c0,0.3-0.2,0.2-0.4,0.3c-0.6,0.1-1.2,0.3-1.8,0.6c-0.5-0.9-0.5-1.1,0.4-1.7
				C977.8,115,978.1,114.5,978.2,113.9z M976.6,112.5c0.3,0,0.6,0.1,0.9,0.2c-0.6,0.7-1.3,0.9-2,1.3c-0.2,0.1-0.2-0.1-0.2-0.2
				C975.2,112.9,975.7,112.4,976.6,112.5z M970.7,101.9c0.2,0,0.3,0,0.5,0c0.6,0.1,1.2-0.1,1.6-0.6c0-0.1,0.1-0.1,0.2-0.1
				c0.3-0.2,0.6-0.1,0.8,0.3c0.2,0.4-0.2,0.3-0.4,0.4c-0.3,0.2-0.5,0.3-0.8,0.5c-0.2,0.1-0.3,0.3-0.2,0.5c0.1,0.2,0.2,0.3,0.4,0.4
				c0.2,0.1,0.4,0,0.7,0c0.5-0.1,0.8,0,1,0.5c0.1,0.3,0.3,0.6,0.5,0.9c0.1,0.2,0.3,0.5-0.1,0.7c-0.3,0.2-0.7,0.2-0.9-0.1
				c-0.1-0.2-0.1-0.4-0.2-0.6c-0.2-0.5-0.4-0.6-0.9-0.4c-0.4,0.2-0.6,0.5-0.8,0.8c-0.2,0.4-0.4,1-0.8,0.9c-0.3-0.1-0.3-0.7-0.3-1.1
				c-0.1-0.9,0-1.8-0.4-2.7C970.5,101.9,970.6,101.9,970.7,101.9z M972.1,129.2c-0.2,0.1-0.4-0.1-0.5-0.3c-0.2-0.4-0.3-0.8,0-1.2
				c0.3,0.3,0.6,0.6,0.7,1C972.3,128.9,972.3,129.2,972.1,129.2z M972.2,131.7c-0.7-0.2-0.6-0.8-0.6-1.4
				C972,130.7,972,131.2,972.2,131.7z M971.9,117.8c0.9,1.2,0.9,1.4,0.4,2C972.1,119.1,971.4,118.6,971.9,117.8z M972.2,115
				c-0.2-0.2-0.3-0.4-0.5-0.6c-0.2-0.2-0.3-0.4,0.1-0.5c0.2,0,0.2-0.2,0.3-0.4c0.1-0.2,0.2-0.3,0.4-0.2c0.2,0.1,0.3,0.2,0.2,0.5
				C972.6,114.3,972.4,114.6,972.2,115z M968.7,113.8c0.4-0.2,0.7-0.2,1.1,0c0.4,0.2,0.8,0.4,1.3,0.4c0.1,0,0.2,0,0.3,0.1
				c0.3,0.4,0.6,0.7,0.8,1.1c-0.3,0-0.4-0.2-0.6-0.3c-0.3-0.2-0.6-0.4-0.9-0.6c-0.8-0.5-1-0.4-1.1,0.6c-0.3-0.4-0.6-0.7-0.9-0.9
				C968.4,114,968.5,113.9,968.7,113.8z M970.6,126c0,0.2,0.1,0.5-0.2,0.5c-0.3,0-0.5-0.1-0.6-0.3c-0.1-0.4-0.3-0.7-0.4-1.1
				c0-0.1-0.1-0.2-0.1-0.3c-0.1-0.3-0.4-0.7-0.3-1c0.1-0.3,0.6-0.1,0.9-0.2c0.4-0.1,0.7,0.1,0.8,0.6c0,0.3,0,0.7,0,1h0
				C970.6,125.5,970.6,125.7,970.6,126z M969.2,121.2c-0.1-0.1-0.1-0.2-0.2-0.4c0.2,0.1,0.3,0.1,0.3,0.1c0.2,0.1,0.3,0.3,0.3,0.6
				c0,0-0.1,0.1-0.1,0.1C969.3,121.6,969.3,121.4,969.2,121.2z M969.1,121.7c-0.8,0.2-0.7-0.6-1-0.9
				C968.8,120.6,968.7,121.4,969.1,121.7z M968.7,126c-0.3-0.5-0.4-0.8-0.5-1.2C968.8,125,968.8,125.4,968.7,126z M967.9,123.5
				c-0.4,0.1-0.5-0.2-0.6-0.5C967.6,123.1,967.8,123.3,967.9,123.5z M965.6,121.4c0.5,0.7,1.3,1.1,1.6,2c-0.5,0-1-0.1-1.3-0.6
				c-0.2-0.3-0.6-0.6-0.8-0.9c-0.1-0.1-0.3-0.2-0.1-0.3C965.1,121.5,965.4,121.2,965.6,121.4z M965.5,123c-0.4-0.1-0.7-0.4-0.7-0.8
				C965,122.4,965.2,122.7,965.5,123z M965.2,120.7c0.3,0.5,0.3,0.5-0.6,0.9C964.8,121.3,965,121,965.2,120.7z M959.8,111.8
				c0-0.1,0.1-0.2,0.2-0.3c0.2-0.1,0.4-0.1,0.6,0c0.5,0.1,1,0.1,1.4-0.3c0.5-0.4,0.8,0.1,1.1,0.5c-0.4,0-0.7-0.2-0.9,0.1
				c-0.2,0.2-0.1,0.6-0.1,0.9c-0.8-0.2-1.4-0.6-2.1-0.6C959.9,112,959.8,112,959.8,111.8z M956.5,122.4c0.9-0.2,1.7-0.1,2.3,0.7
				c0.2,0.3,0.7,0.3,0.5,0.9c-0.6-0.4-1.3-0.7-2-0.8c-0.3-0.1-0.4,0.1-0.4,0.3c0,0.5,0,1,0,1.5c-0.4-0.2-0.7-0.3-0.4-0.8
				c0.2-0.5,0-0.9-0.2-1.2C956,122.6,956.1,122.5,956.5,122.4z M954.8,142.5c-0.2,0-0.5-0.2-0.4-0.5c0-0.3,0.3-0.3,0.5-0.3
				c0.2,0,0.4,0.1,0.4,0.2C955.3,142.3,955.1,142.5,954.8,142.5z M955.4,131.1c-0.1-0.2,0-0.4,0.1-0.6c0.1-0.2,0.3-0.3,0.5-0.5
				c0.4-0.5,0.4-0.7,0-1.1c-0.1-0.1-0.3-0.3-0.4-0.4c0.6,0,1.1-0.1,1.7,0c0.1,0,0.3,0.1,0.3,0.3c0,0.1,0,0.1,0,0.2
				c0.2,0.9,0.2,0.9-0.7,1.3c-0.2,0.1-0.4,0.3-0.4,0.5c0,0.2-0.1,0.4-0.3,0.4C955.9,131.1,955.6,131.3,955.4,131.1z M959.9,138
				c0,0.3-0.1,0.3-0.4,0.3c-0.3-0.1-0.7-0.2-1-0.2c-0.3,0-0.5,0-0.6,0.3c-0.2,0.2,0.1,0.4,0.2,0.6c0.1,0.2,0.3,0.3,0.3,0.5
				c-0.2,0-0.3,0-0.5,0c-0.7-0.1-0.7-0.2-0.5-0.8c0.2-0.5,0-0.8-0.5-1.1c-0.2-0.1-0.3-0.1-0.5-0.2c-0.1-0.1-0.3-0.1-0.3-0.3
				c0.1-0.2,0.2-0.3,0.4-0.2c0.3,0.1,0.5,0.2,0.8,0.3c1,0.4,1.9,0.4,2.8-0.2C959.9,137.2,959.9,137.6,959.9,138z M961.1,126.8
				c0.2,0.2,0.3,0.3,0.3,0.6c0,0.5,0.6,1.1,1.2,1.1c0.3,0,0.6,0.1,0.5,0.5c-0.1,0.3-0.1,0.8-0.7,0.7c-0.4-0.1-0.7-0.2-0.9-0.6
				c-0.4-0.9-1.1-1.8-1.4-2.8c0-0.1,0-0.2-0.1-0.3c0.3,0.2,0.6,0.4,0.8,0.6c0.2-0.2,0-0.3-0.1-0.4c-0.2-0.1-0.4-0.3-0.5-0.4
				c-0.2-0.1-0.5-0.3-0.3-0.5c0.1-0.2,0.3-0.4,0.6-0.4c0.4,0,0.8,0.2,1.1,0.5c0.6,0.9,1.4,1.1,2.4,1.1c0.2,0,0.3-0.1,0.5,0
				c0.3,0,0.4,0.2,0.3,0.5c-0.1,0.2-0.3,0.4-0.4,0.6c-0.1,0.1-0.2,0.2-0.3,0.1c-0.2-0.3-0.6-0.2-0.9-0.2c-0.2,0-0.4,0-0.6-0.2
				c-0.2-0.2-0.5-0.3-0.8-0.3c-0.2,0-0.4-0.2-0.5-0.3C961.1,126.6,960.9,126.6,961.1,126.8z M964.7,132c0,0,0,0-0.1,0
				c0-0.1-0.1-0.3-0.1-0.4c0-0.5-0.3-0.5-0.6-0.3c-0.1,0.1-0.3,0.1-0.3-0.1c-0.1-0.2,0-0.3,0.2-0.4c0.1-0.1,1,0.2,1.1,0.4
				C964.9,131.5,964.9,131.8,964.7,132z M964.2,130.7c0.8-0.4,1.1-1.1,1.1-1.9c0-0.2,0.1-0.4,0.2-0.5c0.3-0.5,0.8-0.6,1.3-0.7
				c0,0.3,0,0.6-0.2,0.9c0.1,0.6,0.1,0.7,0.8,0.6c0.3,0,0.8-0.4,0.9,0.2c0.1,0.5-0.1,0.8-0.7,1.1c0,0-0.1,0-0.1,0
				c-0.1-0.6-0.2-0.7-0.9-0.6c-0.5,0.1-1.1,0.3-1.4,0.8C965,131.1,964.7,131,964.2,130.7z M966.7,133.9c-0.2-0.1,0-0.2,0-0.3
				c0.2-0.7,0.2-0.8-0.5-1c-0.3-0.1-0.6-0.1-0.9-0.2c0.5-0.3,0.9-0.4,1.4,0c0.4,0.3,0.9,0.7,1.4,0.9c0.5,0.2,0.9,0.6,1.6,0.9
				C968.5,134.3,967.6,134.1,966.7,133.9z M966.9,132c1.3-0.3,2.4-0.4,3,1c0.6-0.3,1.2-0.6,1.6-1.3c1.2,1.6,2.2,3.2,4.1,3.9
				C972.3,135.3,969.6,133.8,966.9,132z M974.2,134.2c-0.7-0.6-1.2-1.4-1.8-2.2c0.7-0.1,1-0.5,1.1-1.1c0.1-0.4,0.3-0.3,0.5-0.2
				c1,0.6,1.7,1.4,2.2,2.5c0.3,0.8,0.5,1.7,0.9,2.5C975.8,135.9,975,134.9,974.2,134.2z M977.9,129.8c-0.4,0.4-0.4,0.9-0.2,1.5
				c-0.7-0.3-0.8-0.6-0.4-1.1c0.1-0.2,0.1-0.4,0.2-0.6c0.1-0.1,0.1-0.3,0.3-0.3c0.1,0,0.2,0,0.3,0.1
				C978.1,129.6,978,129.7,977.9,129.8z M981.5,137.9c-0.7-0.7-1.4-1.5-2.1-2.1c-0.8-0.7-1.2-1.7-1.4-2.8c0.9,0.3,1.8,0.7,2.6,1.3
				c1.1,0.9,2.3,1.7,3.6,2.2c1.7,0.8,2.3,2.3,2.7,4c0.2,0.9,0.2,1.8,0,2.7C985.1,141.3,983.3,139.6,981.5,137.9z M985.8,179.3
				c0.2-0.2,0.2-0.1,0.3,0.1c0.1,0.2,0.1,0.6,0.2,0.9l-0.4,0.8l0.5-0.3c0,0.2,0,0.3,0,0.4c-0.1,0.3-0.1,0.6-0.2,0.8
				c-0.1,0.3-0.4,0.2-0.5,0.2c-0.7-0.3-1.5-0.3-2.3-0.6C984.2,180.8,985,180.1,985.8,179.3z M984.5,177.7c0.2-0.1,0.3,0.2,0.4,0.3
				c0.2,0.1,0,0.2-0.1,0.3c-0.5,0.5-0.9,1.1-1.5,1.5c0.3-0.5,0.6-1,0.5-1.6C983.8,177.9,984.3,177.8,984.5,177.7z M983.4,178.8
				c-0.4,0.6-0.3,1.5-1.1,1.9c-0.1,0-0.1,0.1-0.2,0.1c-0.1,0-0.1-0.1-0.2-0.1c-0.4-0.3-0.7-0.7-1-1.1c-0.1-0.2-0.1-0.3,0.1-0.3
				c0.7-0.2,1.4-0.4,2-0.7C983.4,178.3,983.5,178.7,983.4,178.8z M981.2,176.4c0.2-0.4,0.7-0.8,1-0.7c0.1,0,0.2,0.1,0.2,0.2
				c0,0.1-0.1,0.2-0.1,0.2C981.9,176,981.6,176.4,981.2,176.4z M980.1,173.7c0.1-0.3,0.3-0.5,0.6-0.6c0.6-0.3,1.2-0.5,1.9-0.7
				c0,0,0.1,0.1,0.1,0.1c-0.6,0.5-1,1.3-1.7,1.6c0.4,0.1,0.4,0.1,1.5-0.7c0,0.4,0,0.9,0.2,1.3c0.1,0.3-0.1,0.4-0.4,0.5
				c-0.3,0.1-0.7,0.2-1,0.3c-0.5,0.2-0.8,0.5-0.8,1.1c0,0.3-0.2,0.4-0.5,0.4c-0.3,0-0.2-0.2-0.2-0.4
				C979.7,175.6,979.8,174.6,980.1,173.7z M978.9,171.7c-0.3,0.2-0.5,0-0.8-0.1C978.4,171.5,978.6,171.7,978.9,171.7z M978.2,176.1
				c0.1,0.3,0.1,0.4,0.1,0.6c0.1,0.8,0.1,0.8-0.8,0.8C977.8,177,978,176.6,978.2,176.1z M977.4,177.2c-0.1,0.2-0.3,0.3-0.5,0.3
				c-0.9,0-1.7-0.1-2.6-0.3c0.5-0.8,1.1-1.4,1.8-1.9c0.4-0.3,1-0.2,1.5-0.3c0.2,0,0.5-0.3,0.6,0c0.1,0.3-0.1,0.5-0.3,0.7
				c-0.2,0.2-0.2,0.4-0.3,0.7C977.6,176.7,977.5,176.9,977.4,177.2z M971.3,163.8c0.7,0.3,1.3,0.8,1.9,1.2c0.7,0.5,1.4,1,2.2,1.5
				c0.7,0.5,1.5,0.9,2.3,1.3c-1.1,0.1-2.1-0.1-3.1-0.3c-0.9-0.2-1.8-0.3-2.7-0.3c-0.2,0-0.4,0-0.5-0.1c-1.7-0.7-3.3-1.5-4.9-2.5
				C967.8,163.2,969.6,163,971.3,163.8z M977.2,171.5c-0.7,0.1-1.3-0.3-1.9-0.2C975.6,170.9,975.4,171,977.2,171.5z M961.7,170.7
				c-2,0.3-3.9,0-5.3-0.3c0.4-0.6,0.7-1.1,1.1-1.6c1.1-1.3,2.5-1.5,4.1-1c1.2,0.4,1.1,0.4,0.8,1.6
				C962,170.5,961.7,170.7,961.7,170.7z M962.6,170.5c0.2-0.5,0.5-1,0.7-1.5c0.1-0.2,0.2-0.1,0.3,0c0.3,0.2,0.5,0.5,0.8,0.8
				C963.8,170.1,963.2,170.4,962.6,170.5z M963.7,168.2c0,0,1.1-1.7,1.4-2.3c0.1-0.2,0.3-0.2,0.5-0.1c0.8,0.5,1.6,1,2.4,1.6
				c0.2,0.1,0.5,0.1,0.6,0.4c-1,0.5-2.1,1.1-3.3,1.1c0.2,0,0.8,0.1,1,0.1l-0.9,0.5L963.7,168.2z M966,170.1c0.9-0.4,1.8-0.8,2.7-1.1
				c1,0.5,2-0.1,3.1,0.3c-0.8,0.7-1.5,1.5-2.6,1.5c-0.5,0-0.9,0.2-1.3,0.6c0.1,0.1,0.2,0.1,0.2,0.1c0.6-0.4,1.2-0.3,1.8-0.2
				c0.2,0,0.4-0.1,0.5-0.2c0.6-0.4,1.3-0.7,1.8-1.2c0.1-0.1,0.3-0.2,0.5-0.1c0.3,0.1,0.6,0.3,0.9,0.4c-0.2,0.1-0.4,0.2-0.6,0.2
				c0.4,0.1,0.7,0.1,1.1,0.1c-0.5,0.4-1.1,0.7-1.6,1.1c-0.4,0.3-0.8,0.6-1.3,0.8c-0.7,0.3-1.1,0.9-1.5,1.5c-0.2,0.3-0.4,0.3-0.6,0
				C968,172.8,967.1,171.4,966,170.1z M965.1,177.1c0.7,0.2,1.3,0.6,1.9,0.9c0.1,0.1-0.1,1.7-0.2,2.3
				C965.5,178.9,965.1,177.2,965.1,177.1z M971.7,181.4c0,0.1-0.1,0.2-0.2,0.2c-0.7,0-1.5,0.2-2.2,0c-1-0.3-1.8-0.8-2.4-1.4
				c0.4-1.5,0.4-2,0.4-2s2.9,2,4.2,2.9C971.6,181.2,971.7,181.3,971.7,181.4z M972.8,181.1c-0.1,0.1-0.2,0-0.3-0.1
				c-0.4-0.2-0.8-0.4-1.1-0.7c-1.2-0.8-2.3-1.6-3.5-2.3c-0.3-0.1-0.3-0.3-0.1-0.5c0.3-0.5,0.6-1,0.9-1.4c0.2-0.2,0.3-0.2,0.4,0
				c1,1.1,2.2,1.9,3.6,2.6c0.2,0.1,0.3,0.2,0.2,0.4c0,0.2,0,0.5,0,0.8c0,0.3,0,0.6,0.1,1C972.9,180.9,972.9,181,972.8,181.1z
				 M972.9,176.7c-0.7-0.3-1.4-0.7-2-1.2c-0.3-0.2-0.7-0.2-0.9-0.6c-0.1-0.2-0.1-0.3,0.1-0.4c1.1-1,2.4-1.8,3.7-2.5
				c0.4-0.2,0.9-0.2,1.4-0.2c0.3,0,0.3,0.2,0.2,0.4c-0.2,0.3-1.4,1-1.8,1.2c-0.3,0.2-0.5,0.6-1.3,1c-0.7,0.4-1.2,0.5-1.1,0.5
				c1.5,0.2,1.4-0.9,4-1.6c0.1,0,0.2-0.1,0.3-0.2c1.1-1,1.2-1,2.7-0.6c-0.6,0.4-1.2,0.8-1.8,1.2c-0.8,0.4-1.2,1.2-1.9,1.7
				c-0.3,0.2-0.6,0.4-0.8,0.6c-0.2,0.2-0.4,0.3-0.5,0.6c0.2,0.1,0.3-0.2,0.5-0.2C973.5,176.8,973.4,177,972.9,176.7z M973.6,181.6
				c1.7-0.4,3.2,0,4.6,0.7C976.6,182.6,975.1,182.6,973.6,181.6z M979.7,182c-0.2,0.1-0.3,0-0.5-0.1c-1.8-1.1-3.8-1.4-5.9-0.9
				c-0.1-0.6,0-1.1,0.1-1.7c0-0.3,0.2-0.2,0.4-0.1c1.3,0.4,2.6,0.6,3.9,0.6c0.5,0,1-0.1,1.4-0.1c0.1,0,0.3,0,0.4,0.1
				c0.4,0.6,0.9,1.2,1.5,1.7C980.6,181.7,980.2,181.8,979.7,182z M984.1,184.6c-0.2,0.1-0.3,0-0.4,0c-1.2-0.3-2.2-1-3.1-1.8
				c0.5-0.2,1-0.4,1.5-0.7c0.1-0.1,0.3-0.1,0.4,0c1,0.4,2,0.4,3,0.5c0.1,0,0.2,0,0.3,0C985.4,183.5,984.8,184.1,984.1,184.6z
				 M987.5,183.7c-0.7,0.7-1.5,1-2.6,1.1c0.7-0.6,1.3-1.1,1.8-1.7c0.3-0.3,0.7,0.1,1,0.2C987.9,183.4,987.6,183.6,987.5,183.7z
				 M988.9,178.9c-0.1,1.3-0.2,2.5-0.7,3.7c-0.1,0.3-0.2,0.4-0.5,0.2c-0.7-0.5-0.7-0.6-0.4-1.3c0.2-0.3,0.5-1.4,0.3-3.6
				c0-0.5-0.2-0.5,0-0.8c0.3-0.4,0.5-0.9,0.8-1.3c0,0,0.1,0,0.1,0c0,0.1,0,0.3,0,0.4c-0.5,0.8-0.1,1.5,0.4,2.1
				C988.8,178.4,988.9,178.6,988.9,178.9z M989,142.6c-0.4-1.3-0.4-2.6-0.4-4C989.6,139.1,989.6,140.9,989,142.6z M989.1,131.6
				c-0.3-0.7,0-1.4-0.2-2.1c0,0,0-0.1,0.1-0.2c0.5-0.3,1-0.6,1.5-0.8c0.2-0.1,0.4,0,0.6,0.2c0.7,1,0.7,1,1.7,0.3
				c0.1-0.1,0.2-0.2,0.4-0.3c-0.3,0.7-0.2,1.3-0.3,2c0,0.4-0.3,0.6-0.6,0.7c-0.6,0.2-1.2,0.3-1.8,0.5c-0.1,0-0.2,0.1-0.3,0.1
				C989.6,132.4,989.3,132.3,989.1,131.6z M990.6,136.5c0,0.1-0.1,0.2-0.2,0.5c-0.4-0.8-0.6-1.6-0.6-2.4c0-0.6,0.7-1.4,1.4-1.6
				c0.4-0.1,0.7-0.2,1-0.4c0.6-0.4,0.9-0.9,0.9-1.6c0.1-0.7,0-1.3,0.3-2c0.1-0.3,0.3-0.6,0.7-0.2c0.2,0.2,0.4,0.3,0.7,0.5
				c0.5,0.2,0.7,0,0.7-0.5c0-0.6-0.4-1-0.5-1.5c0.4-0.1,0.6,0.1,0.7,0.4c0.3,0.9,0.1,1.7-0.2,2.5c-0.5,1.5-1.6,2.5-2.8,3.3
				C991.6,134.3,990.9,135.3,990.6,136.5z M991.8,174.5c0.1,0,0.1,0,0.2,0c0.3,0.5,0.5,1,0.8,1.5c0.1,0.2,0,0.3-0.1,0.4
				c-0.3,0.2-0.5,0.5-0.7,1C991.9,176.3,991.7,175.4,991.8,174.5z M992.5,182.2c-0.2-0.5-0.5-3-0.5-3.6c0-0.3,0-0.5,0.3-0.7
				c0.1-0.1,0.2-0.2,0.3-0.3c0.7-0.8,0.8-0.8,1.3,0.2c0.1,0.2,0,0.3-0.1,0.4c-0.2,0.3-0.3,0.8-0.3,1.3l-0.5,1.4l0.5-0.7
				c0,0.8,0.2,1.5,0.3,1.8c0.2,0.4,0.1,0.5-0.3,0.7C992.8,183,992.8,183,992.5,182.2z M997.1,184.7c-0.1,0-0.3,0-0.4-0.1
				c-0.7-0.5-1.2-1.1-1.6-1.9c1.2-0.2,2.3-0.2,3.4-0.6c0.1-0.1,0.2,0,0.3,0c0.5,0.2,1,0.4,1.5,0.7
				C999.3,183.7,998.3,184.4,997.1,184.7z M1002.6,182.4c0.7-0.7,3.2-1.2,4.7-0.7C1005.8,182.4,1004.2,182.6,1002.6,182.4z
				 M1007.7,176.8c-0.1,0.1-0.3,0.1-0.4-0.1c-0.4-0.9-1-1.6-1.8-2.4c1.6,0.1,3.1,0.1,4.4,1.2
				C1009.2,176.1,1008.5,176.5,1007.7,176.8z M1006.6,177.3c-0.4-0.2-0.3-0.4-0.5-0.6C1006.4,176.8,1006.5,177,1006.6,177.3z
				 M1013.9,177.9c0.7-0.3,1.1-0.7,1.8-0.8c-0.2,1-0.8,2.2-1.7,3.2c0-0.5-0.2-1.6-0.3-1.8C1013.6,178.2,1013.6,178,1013.9,177.9z
				 M1013.6,178.9c0,0.1,0.2,1,0.3,1.4c-1.2,1.2-2.9,1.9-4.8,1.2c0-0.2,0.2-0.2,0.3-0.3c1.2-0.9,2.3-1.7,3.5-2.6
				C1013.4,178.2,1013.4,178.2,1013.6,178.9z M1013.2,177.6c0.1,0.2,0.1,0.3-0.1,0.4c-0.6,0.4-1.4,0.8-2,1.3
				c-0.8,0.6-1.7,1.2-2.6,1.7c-0.1,0.1-0.2,0.2-0.4,0.1c-0.2-0.1,0.1-1-0.1-2.1c0-0.2,0-0.3,0.2-0.4c1.4-0.5,2.6-1.5,3.6-2.5
				c0.2-0.2,0.3-0.2,0.5,0C1012.6,176.6,1012.9,177.1,1013.2,177.6z M1011.2,174.1c-0.2-0.2,0.1-0.2,0.1-0.3c0,0,0,0,0-0.1
				c-0.9-0.9-2.1-1.4-3.1-2.2c-0.1-0.1-0.3-0.1-0.3-0.3c0-0.2,0.3-0.1,0.4-0.1c1.7,0.1,3.3,0.4,4.8,1.4
				C1012.6,173,1011.6,174.5,1011.2,174.1z M1014.5,170.6c-0.4,0.5-0.7,0.9-1.1,1.4c-0.2,0.2-0.3,0.2-0.5,0.1
				c-1.2-1-2.6-1.4-4.1-1.5c-0.5,0-1.1-0.2-1.7,0c-0.1,0.1-0.3,0-0.4-0.1c1.1-0.7,2.2-0.9,3.5-0.7c-0.4-0.3-0.7-0.2-1-0.4
				c0.3-0.2,0.7-0.3,1-0.5c0.2-0.1,0.4,0,0.5,0.1c0.5,0.3,1.1,0.6,1.5,0.9c0.6,0.4,1.2,0.5,1.9,0.3c0.2-0.1,0.4-0.1,0.5,0.1
				C1014.8,170.4,1014.6,170.5,1014.5,170.6z M1012.1,169c0.6,0.2,1.2,0.4,1.8,0.8C1013.1,169.9,1012.6,169.4,1012.1,169z
				 M1018.4,168.3c1.8-0.9,4.1-1.1,5.5,1.3c0.2,0.3,0.4,0.5,0.5,0.8c-1,0.3-2.1,0.5-3.1,0.5c-0.7,0-1.4-0.1-2.1-0.3
				c-0.2,0-0.2-0.1-0.3-0.3c-0.2-0.5-0.4-1.1-0.7-1.6C1018.1,168.5,1018.2,168.4,1018.4,168.3z M1018.3,170.4
				c-0.6-0.1-1.2-0.3-1.7-0.5c0.3-0.4,0.6-0.7,1-0.9C1017.8,169.4,1018,169.8,1018.3,170.4z M1017,167.9c0.1,0.1,0,0.2-0.1,0.3
				c-0.4,0.3-0.8,0.7-1.2,1c-0.1,0.1-0.2,0.1-0.3,0c-0.6-0.4-1.3-0.6-2-1.1c0.5,0,0.8-0.1,1.1-0.3c0.5-0.3,0.9-0.2,1.4-0.2
				c0.3,0,0.5,0,0.8,0C1016.8,167.8,1017,167.8,1017,167.9z M1015.3,165.8c0.1-0.1,0.2-0.1,0.3,0c0.4,0.5,0.8,1.1,1.1,1.7
				c-0.2,0.1-0.4,0-0.6,0c-0.7-0.1-1.5-0.4-2.2,0.1c-0.3,0.2-0.9,0.1-1.3-0.1C1013.6,166.9,1014.4,166.4,1015.3,165.8z
				 M1008.9,164.1c1.2-0.7,2.4-1,3.8-0.6c0.5,0.1,0.9,0.4,1.3,0.6c0.4,0.2,0.3,0.5-0.1,0.7c-1.4,0.6-2.7,1.4-4.2,2
				c-0.4,0.1-0.7,0.3-1.1,0.3c-1,0-2,0.2-3,0.4c-0.6,0.1-1.1,0.1-1.6-0.3C1005.9,166.3,1007.3,165,1008.9,164.1z M1003.6,172
				c0.8,0.2,1.5-0.1,2.3-0.3c0.2-0.1,0.4-0.1,0.6,0c1.5,0.8,2.9,1.6,4.1,2.7c0.1,0.1,0.4,0.1,0.2,0.4c-0.2,0.3-0.4,0.7-0.8,0.4
				c-1-0.7-2.1-1.1-3.3-1.1c-0.4,0-0.8-0.1-1.1-0.3c-0.7-0.5-1.5-0.7-1.9-1.5C1003.6,172.2,1003.6,172.1,1003.6,172z M1002.6,174.1
				c1.6,0.7,3,1.4,3.5,3.2c-0.6,0.2-1.3,0.2-1.9,0.2c-0.5,0-0.9-0.5-1-0.9C1002.9,175.8,1002.4,175.1,1002.6,174.1z M1002.5,176.7
				c0.2,0.3,0.4,0.5,0.7,0.7C1002.5,177.6,1002.3,177.4,1002.5,176.7z M1001.7,179.6c1.4,0.4,2.8,0.1,4.2-0.1
				c0.4-0.1,0.8-0.2,1.2-0.3c0.2-0.1,0.4,0,0.4,0.3c0.1,0.5,0.1,1,0.1,1.6c-2.2-0.5-4.2-0.2-6,1c-0.2,0.1-0.3,0.1-0.4,0
				c-0.4-0.2-0.8-0.3-1.3-0.5c0.6-0.6,1.2-1.1,1.6-1.8C1001.4,179.5,1001.6,179.5,1001.7,179.6z M1001.1,176.3
				c0,0.2-0.1,0.4-0.1,0.7c-0.5,0-0.7-0.3-0.7-0.8c0-0.1-0.1-0.3-0.1-0.4c0-0.2-0.2-0.6,0.2-0.6c0.3-0.1,0.7,0.3,0.7,0.6
				C1001.1,175.9,1001.1,176.1,1001.1,176.3z M1000.9,174.7c-0.5-0.8-1.3-1.2-1.9-2C1000.5,173.1,1000.8,173.4,1000.9,174.7z
				 M998.3,174.6c0-0.3,0.1-0.5,0.1-0.8c0.5,0.1,0.6,0.5,0.8,0.9c0,0.1,0.1,0.3,0.1,0.5c0.1,0.4,0.1,0.9,0.2,1.4
				c-0.2-0.1-0.3-0.1-0.4-0.2C998.1,175.7,998.1,175.7,998.3,174.6z M996.5,178c0.1-0.2,0.2-0.1,0.3,0c0.5,0.3,2.1,1.2,3.3,1.4
				c-0.3,0.5-0.7,0.9-1.1,1.3c-0.3,0.2-0.5,0.3-0.8,0c-0.6-0.6-1.2-1.1-1.8-1.7C996.2,178.7,996.4,178.3,996.5,178z M994.9,179.1
				c0.8,0.9,1.7,1.6,2.7,2.3c-0.9,0.3-1.8,0.4-2.7,0.6c-0.1,0-0.2-0.1-0.2-0.2C994.5,181,994.4,180.1,994.9,179.1z M994.5,183.4
				c0.4,0.5,0.9,0.9,1.5,1.4c-1.1,0-2-0.4-2.7-1.1c-0.2-0.2-0.2-0.4,0.1-0.5C994.1,182.8,994.1,182.8,994.5,183.4z M1001,139.4
				c-2.2,0.8-4.4,1.8-6.4,3c-0.5,0.3-1,0.6-1.5,0.7c-0.2,0.1-0.6,0.3-0.7,0c-0.2-0.3-0.1-0.7,0.2-0.9c0.5-0.5,1.1-0.8,1.8-0.9
				c0.8-0.1,1.5-0.2,2.3-0.4c0.3-0.1,0.7-0.3,0.9-0.6c0.2-0.3,0.5-0.4,0.9-0.5c1.3-0.4,2.6-0.5,3.9-1.1c0.1,0,0.2,0,0.2,0
				c0,0,0,0.1,0,0.1C1002,139,1001.5,139.2,1001,139.4z M999.9,138.1c0.1-0.2,0.2-0.3,0.2-0.5c0.1-0.5,0.4-0.4,0.8-0.3
				c0.1,0.1,0.3,0.4,0.3-0.1c0.1,0,0.2-0.1,0.2,0c0.4,0.3,0.7,0,1.1,0C1001.8,137.7,1000.9,137.9,999.9,138.1z M1002.6,138.7
				c1.2-0.9,1.2-0.9,2.2-0.7C1004,138.2,1003.3,138.6,1002.6,138.7z M1005.6,137.3c-0.5-0.5-0.5-0.5,0.2-0.9
				C1005.7,136.7,1005.7,137,1005.6,137.3z M1005.4,134.5c-0.6-0.1-1.2-0.2-1.7-0.3c-0.2,0-0.3,0-0.4,0.1c-0.5,0.2-1,0.4-1.7,0.7
				c0.3-0.6,0.7-1.1,1.2-1.3c1.3-0.7,2.3-1.7,3.2-2.9c0.4-0.5,0.9-1,1.3-1.6c-0.2,0-0.5,0.1-0.5-0.2c0,0,0-0.1,0-0.1
				c0-0.3-0.6-0.6,0-0.8c0.6-0.3,1.1-0.1,1.3,0.4c0.2,0.5,0.3,0.5,0.7,0.2c0.5-0.3,0.6-0.8,0.8-1.3c0.1,0,0.1,0,0.1,0
				c0.7,0.4,0.6,0.4,0.2,1.1c-0.8,1.2-2,2.1-2.7,3.4c-0.2,0.4-0.6,0.7-1,0.9c-0.4,0.1-0.7,0.4-1.2,0.7c0.4,0.1,0.7,0,1,0.2
				c0,0.2-0.3,0.2-0.4,0.4c0.1,0.1,0.5,0.1,0.3,0.4C1005.8,134.7,1005.6,134.5,1005.4,134.5z M1006,137.4c0-0.5,0.3-0.9,0.1-1.3
				c0,0,0.1-0.1,0.2-0.2c0.5-0.5,0.9-1,1-1.7c0-0.2,0.1-0.2,0.3-0.1c0.5,0.2,0.8,0.5,1,1c0.1,0.2,0,0.3-0.1,0.4
				c-0.4,0.5-0.8,1-1.3,1.4C1006.9,137.1,1006.4,137.2,1006,137.4z M1007.4,137.7c0.6-0.4,1.2-0.7,1.8-1.1c0.2-0.1,0.2,0,0.3,0.1
				c0.2,0.4,0.5,0.7,0.8,1H1007.4z M1011.7,137.6c1.1-0.4,2.2-0.3,3.2-0.8C1014.5,137.3,1012.8,137.7,1011.7,137.6z M1017.4,135.7
				c-1-0.1-1.8,0.1-2.7,0.4c-0.6,0.2-1.3,0.4-2,0.5c-0.3,0-0.5,0-0.9,0c0.2-0.9,0.8-1.6,1.6-2.1c-0.1-0.2-0.2-0.3-0.5-0.1
				c-0.4,0.2-0.8,0.5-1,0.9c-0.1,0.2-0.2,0.4-0.2,0.6c-0.3,0.8-0.4,0.8-1,0.3c-0.1-0.1-0.3-0.2-0.4-0.3c0.6-0.7,2.4-1.7,3.4-1.9
				c0.2,0.2-0.5,0.4,0.1,0.6c0.5-0.1,1-0.3,1.3,0.3c0.1,0.2,0.5,0.2,0.8,0.2c0.9-0.1,1.8-0.2,2.7-0.2c0,0,0.1,0,0.1,0
				C1018.5,135.4,1018,135.7,1017.4,135.7z M1020.6,138c-0.6,0.3-1.2,0.2-1.8-0.1c-0.3-0.1-0.5-0.3-0.7-0.6c0.7-0.2,1.4-0.4,2-0.6
				c0.2-0.1,0.5-0.3,0.7,0.1C1021.1,137.5,1021,137.7,1020.6,138z M1019.3,130c0.2-0.3,0.4-0.2,0.6-0.1c0.3,0.1,0.1,0.4,0,0.5
				c-0.1,0.3-0.5,0.4-0.7,0.6C1019.2,130.7,1019.1,130.3,1019.3,130z M1021.6,126.5c-1,0.4-1.7,1.1-2.6,1.8
				c-0.2,0.1-0.3,0.2-0.6,0.1c-0.3-0.1-0.4-0.2-0.2-0.5c0.3-0.6,0.7-1,1.3-1.2c0.1,0,0.2-0.1,0.3-0.1c0.6-0.3,0.6-0.3,0.1-0.8
				c-0.2-0.2-0.4-0.4-0.7-0.6c1-0.6,2.2-0.1,2.4,1C1021.8,126.4,1021.7,126.5,1021.6,126.5z M1022.8,123.3c-0.1,0.1-0.2-0.1-0.3-0.1
				c-0.3,0-0.4-0.2-0.6-0.4c-0.2-0.2-0.4-0.3-0.6-0.2c-0.3,0.2-0.3,0.7-0.8,0.5c-0.2-0.1-1-0.9-1-1.2c0-0.2,0.1-0.3,0.2-0.4
				c0.2-0.1,0.4,0,0.5,0.1c0.3,0.4,0.7,0.6,1.1,0.7v0c0.4,0,0.7,0,1.1,0c0.2,0,0.5,0.1,0.5,0.4
				C1022.9,123,1022.9,123.2,1022.8,123.3z M1023.9,135.9c0,0-0.1,0-0.2,0.1c-0.2-0.2-0.6-0.1-0.8-0.4c-0.1-0.3,0.1-0.5,0.3-0.7
				c0.2-0.3,0.5-0.4,0.9-0.5c0.3-0.1,0.4,0,0.5,0.3C1024.6,134.9,1024.1,135.7,1023.9,135.9z M1024.6,130.2
				c-0.4,0.5-0.8,0.8-1.5,0.5c0.4-0.3,0.8-0.6,1.3-0.9c0.1-0.1,0.4-0.1,0.5,0C1024.9,130,1024.6,130.1,1024.6,130.2z M1024.7,136.6
				c0.4,0.2,0.5,0.4,0.5,0.9C1024.8,137.4,1024.6,137.1,1024.7,136.6z M1025.5,122.7c-0.5,0.3-0.9,0.2-1.2-0.3
				c-0.1-0.1-0.1-0.3,0-0.4c0.2-0.5,0-0.8-0.4-1c-0.2-0.1-0.7-0.2-0.5-0.5c0.2-0.4,0.4,0,0.6,0.1c0.6,0.2,1.1,0.1,1.7-0.1
				c0.6-0.2,0.6-0.2,0.7,0.4c0.1,0.6,0.2,1.1,0.6,1.5c0.1,0.1,0.1,0.1,0.2,0.2c-0.2,0.3-0.5,0.4-0.8,0.5c-0.2,0.1-0.3-0.1-0.3-0.3
				C1026.1,122.4,1025.8,122.6,1025.5,122.7z M1026,140.6c0.2,0.3,0.4,0.6,0.6,0.9C1025.7,141.4,1025.7,141.3,1026,140.6z
				 M1028.7,142.2c0,0.1-0.2,0-0.2,0c-0.2-0.1,0-0.3,0-0.5C1028.6,141.9,1028.7,142,1028.7,142.2z M1030.8,132.3
				c0.1,0.3-0.2,0.1-0.3,0.2c-0.2-0.1-0.6,0.1-0.6-0.3c0-0.3,0.2-0.7,0.5-0.7C1030.7,131.5,1030.8,132,1030.8,132.3z M1029.5,129.8
				c0.2-0.2-0.2-0.9,0.5-0.9c0.2,0,0.6-0.1,0.6,0.3c0,0.4-0.4,0.9-0.8,0.9C1029.6,130.2,1029.4,130.2,1029.5,129.8z M1031.8,136.1
				c0.1,0,0,0.2,0,0.3c-0.2,0.6-0.3,1.2-0.6,1.8c0,0,0,0,0,0c0,0,0,0,0,0c0,0,0,0,0,0c0,0,0,0,0,0c0,0,0,0,0,0
				c-0.1,0.1-0.3,0.1-0.5,0.1c0,0.1,0,0.1,0,0.1c0.1,0.1,0.2,0.1,0.2,0.2c-0.4,0-0.8,0-1.2,0.4c0.3-0.7,0.6-1.2,0.8-1.8
				c0.1-0.3,0.1-0.5-0.1-0.7c-0.3-0.4-0.2-0.8,0.2-0.9c0.4-0.2,0.4-0.2,0-0.6c0.3,0,0.5-0.1,0.8-0.1c0.1,0,0.3-0.2,0.4,0
				c0.1,0.2,0.2,0.5,0,0.7C1031.6,135.7,1031.2,135.9,1031.8,136.1z M1034,131c-0.2,0.4-0.1,0.8,0,1.2c-0.2-0.2-0.4-0.5-0.7-0.4
				c-0.2,0-0.3-0.1-0.3-0.3c-0.1-0.2,0.1-0.2,0.2-0.3c0.2-0.1,0.2-0.3,0.4-0.5c0.1-0.1,0.2-0.1,0.4-0.1
				C1034,130.7,1034,130.9,1034,131z"/>
		</g>
	</g>
	<g id="Слой_5__x28_копия_x29_">
		<g id="Слой_4__x28_копия_x29_">
			<path class="st3" d="M948.3,111.6l-0.1-0.1l0.1-0.1l-0.1,0l0.7-2l3.6-10.2l3.5,2.4l8.9-11l0.5,3.8l0,0l-8.6,7.9l-0.7-0.5
				l-3.4,4.2L948.3,111.6z M952.7,99.3l-3.6,10.1l-0.7,2l4.3-5.5l3.4-4.2L952.7,99.3z M956.3,101.6l0.6,0.4l8.5-7.8l-0.4-3.4
				L956.3,101.6z"/>
			<polygon class="st3" points="999.9,90.9 989.2,90.9 975.3,90.7 969.5,90.7 965,90.7 965,90.6 969.5,90.6 975.3,90.6 989.2,90.7 
				999.9,90.7 			"/>
			<path class="st3" d="M966.9,109.1L965,90.6l3,1.4l5.6,2.2l1.6-3.6l1.9-4.3l0,0l9.3-1.3l0,0l0.1,0l0,0l0,0l14.3,3.3l1.1-1.9l0.1,0
				l13.8,5.4l-5.6,3l-15.6,8.2l0,0.1l-0.1-0.1l-0.1,0.1l0-0.1l-20.8-8.8L966.9,109.1z M965.1,90.8l1.8,17.8l6.6-14.3l-5.6-2.2
				L965.1,90.8z M973.7,94.2l20.7,8.7l-5.3-12.1l-2.6-5.7l-9.3,1.3l-1.9,4.3L973.7,94.2z M999.5,91.1l0.1,0.1l-5,11.8l15.5-8.2
				l5.3-2.9l-13.5-5.3l-2.4,4.3l-12.9-5.7l2.5,5.6l5.3,12.1L999.5,91.1z M987.3,85.3l12.3,5.5l1.3-2.3L987.3,85.3z"/>
			<path class="st3" d="M936.4,149.3l-0.6-17.6l0-0.1l0-0.1l0,0c0.2-1.1,2.7-11.9,2.9-13l-0.1,0l0.1-0.1l0.1-0.3l0,0.2l4.8-4.4
				l-0.3,5.6l17.3,4.2l-12.2-12.2l0.1-0.1l12.6,12.6l-17.8-4.3l-1.4,14.2l0,0l-2.8,7.3L936.4,149.3z M936,131.8l0.5,16.8l2.5-7.3
				l2.8-7.3l0.1,0l-0.1-0.3L936,131.8z M936,131.6l5.8,1.9l-3-14.6C937.9,123.2,936.2,130.9,936,131.6z M939,118.7l2.9,14.5
				l1.4-13.4L939,118.7z M939,118.5l4.3,1l0.3-5.2L939,118.5z"/>
			<path class="st3" d="M958.9,152.7l0.8-12l-8.4,3.1l0-0.1l8.5-3.2l1.2-16.4l-18.8,9.6l9.2,10.1l-10,3.6l0.8,2.5l-6-0.8l5-1.8l0,0
				l-2-6l-3-9.3l0.1,0l3,9.3l2,6l9.8-3.6l-9.2-10.1l19.2-9.8l0,0.1l-1.2,16.5l10.3-3.8L958.9,152.7z M959.8,140.6l-0.8,11.6
				l10.8-15.3L959.8,140.6z M936.6,149l5.2,0.7l-0.7-2.3L936.6,149z"/>
			<path class="st3" d="M951,177.1l-9.6-13.4l6.1,3.5l-1.2-3.5l-1.4-4l-3.2-9.9l16.6,2.6l0,0.1l-16.3-2.6l3.1,9.6l3.3,3.9l10.5-11.2
				l0.8,10.6h-0.1c-0.4,0-9.8,0.7-11.1,0.7l12.6,12.2l-11.7-7.5l-1.7-1l0,0.1L951,177.1z M941.9,164.1l8.6,12.2l-3-8.9L941.9,164.1z
				 M947.7,167.2l1.9,1.1l10.6,6.7l-11.7-11.3l0,0l0-0.1l-0.1-0.1l0,0l-3.1-3.6l1.2,3.6L947.7,167.2z M958.9,152.6l-10.3,10.9
				c1.4-0.1,10-0.7,11-0.7L958.9,152.6z"/>
			<path class="st3" d="M941.6,163.9l-5.5-15.2l9,10.8l3.5,4.1L941.6,163.9z M936.6,149.4l5.2,14.4l6.6-0.3l-3.3-3.9L936.6,149.4z"
				/>
			<path class="st3" d="M971.7,182.7l-7-2l-14.2-4.1l10.2-1.3l11.5-0.3L971.7,182.7z M964.7,180.5l6.9,1.9l0.5-7.3l-11.3,0.3
				l-9.5,1.2L964.7,180.5L964.7,180.5z"/>
			<polygon class="st3" points="971.1,189.5 950.7,176.7 949.5,168.3 948.4,163.9 948.5,163.8 949.6,168.3 950.9,176.6 971.2,189.3 
							"/>
			<path class="st3" d="M971.2,189.6l-6.6-8.9l-3.8-5l0-0.2l-1.1-12.7l13.3-0.8l-0.8,13.1l11.5-0.4l-8.8,8.9l-3.2-0.9L971.2,189.6z
				 M960.9,175.6l3.8,5l6.4,8.6l0.4-6.7l3.2,0.9l8.5-8.6l-11.3,0.4l0.8-13.1l-13,0.8L960.9,175.6z"/>
			<polygon class="st3" points="984.6,192.4 971.2,189.5 971.2,189.3 984.1,192.1 974.8,183.5 960.8,175.5 960.8,175.4 974.8,183.4 
				974.9,183.4 			"/>
			<path class="st4" d="M984.4,192.2"/>
			<polygon class="st3" points="961.2,175.2 961.1,175.1 972.7,162 958.9,152.5 958.9,152.5 951,143.7 951.1,143.6 959,152.4 
				973,162 			"/>
			<polygon class="st3" points="970.1,136.8 970.1,136.7 989.1,132.5 973.8,116 973.9,116 989.4,132.6 			"/>
			<polygon class="st3" points="973.8,116.1 973.8,115.9 979.2,112.6 966.9,108.9 966.9,108.8 979.6,112.5 			"/>
			<path class="st3" d="M960.8,124.1l6-15.2l-18.5,2.5l-1-0.4l-3.7,3.3l0.3-4.5l-4.8,8.5l8.9-6.8l0.1,0.1l-9.5,7.2l5.2-9.3l0,0
				l0.1-0.1l0.1-0.3l0,0.1l8.5-10.2l0,0l12.4-8.5l0,0l7.8-3.1l-3.3,3.2l-1.5,1.4l-2.4,2.2l1.4,14.5l27.9-5.8l-0.3,0.2l-2.4,13.2
				l-13-3.8l14.9-9.3l-27.1,5.7l6.9,7.1L960.8,124.1z M966.9,109l-5.8,14.8l12.6-7.8L966.9,109z M979.6,112.5l12.5,3.6l2.4-12.9
				L979.6,112.5z M944,109.6l-0.3,4.4l3.4-3.1L944,109.6z M947.4,110.9l0.9,0.4l18.4-2.5l-9.8-6.6l-4.1,3.7l-3.7,3.5L947.4,110.9z
				 M944.1,109.5l3.2,1.4l1.7-1.6l3.7-3.5l4.2-3.8l0,0l9.9,6.7l-1.4-14.5l2.5-2.3l1.5-1.4l2.8-2.7l-7.1,2.8l-12.4,8.5L944.1,109.5z"
				/>
			<polygon class="st3" points="1011.7,143.1 1011.6,143 1022.1,136.4 1016.4,123.6 992.2,116.3 989.3,132.5 989.1,132.5 
				992.1,116.2 1016.5,123.5 1016.5,123.5 1022.3,136.5 			"/>
			<path class="st3" d="M994.4,163.8l-21.6-1.7l-2-17.4l-11.8,7.8l-0.1-0.1l11.9-7.8l-0.9-7.8l-9.1-12.9l28.6,8.7l-14.5,9.5
				L994.4,163.8z M972.9,162l21.2,1.6l-19.3-21.5l-3.8,2.5L972.9,162z M970.1,136.9l0.9,7.5l3.7-2.4L970.1,136.9z M970,136.7
				l4.7,5.3l14.3-9.4l-27.9-8.5L970,136.7z"/>
			<path class="st3" d="M1001.2,191.2l-26.4-7.6l0-0.1l26.2,7.6l-2.5-10.7l-1.6-6l-13.5,0.5l11-11.3l2.6,10.7l17.7-0.7l0,0.1
				l-17.6,0.7l1.6,5.9L1001.2,191.2z M994.2,163.8l-10.6,10.9l13.2-0.5L994.2,163.8z"/>
			<path class="st3" d="M1000.8,191.3l9.7-12.5l-12,1.6l-23.1,3l0-0.1l23.1-3l12.1-1.6l4.1-5.3l-0.2,4.7l12.9-1.7l0.4-0.2l8.7-12
				l6.1-20.2l-16.1,2.4l8.2,4.9l0.5,4.6l-0.1,0l-14.1,2.6l5.2-12.1l5.3-15.9l11,13.2l-0.1,0.1l-10.9-13l-5.2,15.6l16.4-2.4
				l-6.2,20.5l-8.8,12.1l-0.1,0l0,0l-13.8,10.2l0.1-2.6L1000.8,191.3z M1010.7,178.7l-9.3,12.1l12.8-7.1l0.2-5.5L1010.7,178.7z
				 M1014.3,183.8l-0.1,2.4l12.7-9.4L1014.3,183.8z M1014.5,178.2l-0.2,5.4l12.8-7.1L1014.5,178.2z M1014.5,173.8l-3.7,4.8l3.6-0.5
				L1014.5,173.8z M1026.5,146.3l-5.1,11.8l13.8-2.5l-0.5-4.4L1026.5,146.3z"/>
			<path class="st3" d="M1014.5,174l0-0.4l-20.3-9.8l0.1-0.1l20.2,9.8l-1.2-13.4l0.1,0l8.1-1.8l-0.1,0.1l-6.7,15.4l0,0l0,0.3
				L1014.5,174z M1013.4,160.1l1.2,13.3l6.5-15L1013.4,160.1z"/>
			<path class="st3" d="M994.2,163.6l17.5-20.7l1.7,17.2L994.2,163.6z M1011.6,143.2l-17,20.1l18.7-3.4L1011.6,143.2z"/>
			<path class="st3" d="M994.3,163.5l-5.2-31.1l0.1,0l27.3-9l-4.8,19.7l-0.1,0l-22.3-10.5l5.1,30.8L994.3,163.5z M989.4,132.5
				l22.2,10.4l4.7-19.3L989.4,132.5z"/>
			<path class="st3" d="M1016.5,123.7l-0.1-0.1L994.3,103l21.7,5l0,0.1L1016.5,123.7z M994.8,103.2l21.6,20.2l-0.5-15.3L994.8,103.2
				z"/>
			<polygon class="st3" points="994.5,103.2 994.5,103 1015.8,101.9 1015.7,97 1010.2,94.9 999.1,90.7 1015.7,91.8 1015.7,91.9 
				1000.1,90.9 1010.3,94.8 1015.8,96.9 1016,102.1 			"/>
			<path class="st3" d="M1023.7,110l-7.8-1.9v-6.1l12.4-0.6L1023.7,110z M1016,108l7.6,1.9l4.4-8.3l-12.1,0.5V108z"/>
			
				<rect x="1008.4" y="82.4" transform="matrix(0.2278 -0.9737 0.9737 0.2278 691.0131 1051.5345)" class="st3" width="0.1" height="15.4"/>
			<path class="st3" d="M1028.6,101.7l-12.9-4.7l-0.1-5.2L1028.6,101.7z M1015.8,96.9l11.9,4.4l-12-9.2L1015.8,96.9z"/>
			<path class="st3" d="M1016.3,123.7l7.3-13.9l4.6-8.5l8.3,11.5l-6.4,3.5L1016.3,123.7z M1028.2,101.6l-4.5,8.3l-7.1,13.5l13.4-7.2
				l6.3-3.4L1028.2,101.6z"/>
			<path class="st3" d="M1036.1,112.9c-0.5,0-6.5-1.6-6.8-1.7l-5.7-1.3l0-0.1l5.7,1.3c2.2,0.6,6.3,1.7,6.7,1.7V112.9z"/>
			<path class="st3" d="M1026.5,146.3l-14.9-3.2l0-0.1l14.6,3.1l-4.2-9.7l9.6-5.9l-15.3-6.9l0-0.1l14.9,4.8l-1.4-12l-0.7-5.1
				l-1.2-9.5l0.1,0l1.2,9.5l0.7,5.1l1.4,12.1l2.7,0.9l-2.3,1.3l-9.7,6L1026.5,146.3z M1031.5,128.5l0.3,2l0.1,0l2-1.1L1031.5,128.5z
				 M1017.6,124l14,6.3l-0.2-1.9l-0.2-0.1L1017.6,124z"/>
			<path class="st3" d="M1027.6,176.5L1027.6,176.5l-13.3-2.9l16.9-7.2l4-11l1.4,8.8l-0.1,0l-5.3,2.3L1027.6,176.5z M1014.8,173.5
				l12.7,2.8l3.6-9.8L1014.8,173.5z M1035.2,155.9l-3.8,10.3l5.1-2.2L1035.2,155.9z"/>
			<path class="st3" d="M1040.6,154.8l-5.9-3.5l0,0l-0.9-6.1l-2.1-14.7l0,0l4.5-17.3l0.1,0l-4.5,17.3l2.1,14.7l0.9,6l5.7,3.4
				l2.2-10.8l-2.6-12.6l-6.2-2l5.2-2.8l-2.8-13.6l0.1,0l5,12.6l-2.2,1.2l0.9,4.6l2.4,0.8l0,0.1l0.2,11.9L1040.6,154.8z
				 M1040.3,131.3l2.4,11.8l-0.2-11.1L1040.3,131.3z M1034.2,129.2l5.8,1.8l-0.9-4.5L1034.2,129.2z M1036.6,113.6l2.6,12.8l2-1.1
				L1036.6,113.6z"/>
		</g>
		<g id="Слой_3__x28_копия_x29_">
			<circle class="st3" cx="1016.4" cy="123.6" r="2.6"/>
			<circle class="st3" cx="992.1" cy="116.3" r="0.5"/>
			<circle class="st3" cx="979.4" cy="112.6" r="0.5"/>
			<circle class="st3" cx="973.8" cy="116" r="0.5"/>
			<circle class="st3" cx="994.5" cy="103.1" r="1.4"/>
			<circle class="st3" cx="1015.7" cy="91.9" r="1.2"/>
			<circle class="st3" cx="999.6" cy="90.8" r="1.1"/>
			<circle class="st3" cx="986.6" cy="85" r="0.8"/>
			<circle class="st3" cx="1002" cy="86.5" r="0.8"/>
			<circle class="st3" cx="1015.8" cy="96.9" r="0.5"/>
			<circle class="st3" cx="1015.9" cy="102" r="0.5"/>
			<circle class="st3" cx="1015.9" cy="108" r="0.5"/>
			<circle class="st3" cx="1023.6" cy="109.9" r="0.5"/>
			<circle class="st3" cx="1028.2" cy="101.4" r="0.7"/>
			<circle class="st3" cx="1030" cy="116.3" r="0.5"/>
			<circle class="st3" cx="1031.4" cy="128.3" r="0.5"/>
			<circle class="st3" cx="1034.1" cy="129.2" r="0.5"/>
			<circle class="st3" cx="1022.2" cy="136.5" r="0.5"/>
			<circle class="st3" cx="1026.4" cy="146.2" r="1.1"/>
			<circle class="st3" cx="1042.8" cy="143.8" r="0.8"/>
			<circle class="st3" cx="1034.8" cy="151.2" r="0.5"/>
			<circle class="st3" cx="1021.2" cy="158.2" r="0.5"/>
			<circle class="st3" cx="1040.6" cy="154.7" r="0.6"/>
			<circle class="st3" cx="1035.3" cy="155.7" r="0.8"/>
			<circle class="st3" cx="1036.6" cy="164.1" r="0.9"/>
			<circle class="st3" cx="1027.6" cy="176.4" r="0.8"/>
			<circle class="st3" cx="998.5" cy="180.3" r="0.5"/>
			<circle class="st3" cx="996.9" cy="174.3" r="0.5"/>
			<circle class="st3" cx="994.2" cy="163.7" r="1.2"/>
			<circle class="st3" cx="970" cy="136.7" r="1.1"/>
			<circle class="st3" cx="1011.6" cy="143.1" r="1.2"/>
			<circle class="st3" cx="1013.3" cy="160" r="0.5"/>
			<circle class="st3" cx="1014.6" cy="173.6" r="1.2"/>
			<circle class="st3" cx="1033.8" cy="145.2" r="0.5"/>
			<circle class="st3" cx="1042.6" cy="131.9" r="0.5"/>
			<circle class="st3" cx="1031.7" cy="130.5" r="0.7"/>
			<circle class="st3" cx="1041.4" cy="125.3" r="0.7"/>
			<circle class="st3" cx="1029.3" cy="111.1" r="0.5"/>
			<circle class="st3" cx="1036.4" cy="112.8" r="0.8"/>
			<circle class="st3" cx="1010.2" cy="94.8" r="0.5"/>
			<circle class="st3" cx="1001" cy="88.4" r="0.5"/>
			<circle class="st3" cx="989.2" cy="90.8" r="0.5"/>
			<circle class="st3" cx="969.5" cy="90.6" r="0.5"/>
			<circle class="st3" cx="975.3" cy="90.6" r="0.5"/>
			<circle class="st3" cx="973.5" cy="94.2" r="0.5"/>
			<circle class="st3" cx="956.9" cy="102.1" r="0.5"/>
			<circle class="st3" cx="966.9" cy="108.9" r="0.8"/>
			<circle class="st3" cx="952.7" cy="105.8" r="0.5"/>
			<circle class="st3" cx="944" cy="109.5" r="0.6"/>
			<circle class="st3" cx="948.3" cy="111.4" r="0.7"/>
			<circle class="st3" cx="938.9" cy="118.6" r="0.7"/>
			<circle class="st3" cx="935.9" cy="131.7" r="0.7"/>
			<circle class="st3" cx="941.9" cy="133.6" r="0.7"/>
			<circle class="st3" cx="939.2" cy="141.3" r="0.5"/>
			<circle class="st3" cx="941.9" cy="149.8" r="0.5"/>
			<circle class="st3" cx="945.1" cy="159.6" r="0.5"/>
			<circle class="st3" cx="946.4" cy="163.6" r="0.5"/>
			<circle class="st3" cx="941.7" cy="163.9" r="0.8"/>
			<circle class="st3" cx="950.8" cy="176.7" r="0.8"/>
			<circle class="st3" cx="960.8" cy="175.4" r="0.8"/>
			<circle class="st3" cx="972.9" cy="162" r="0.8"/>
			<circle class="st3" cx="948.4" cy="163.6" r="1.1"/>
			<circle class="st3" cx="947.8" cy="167.6" r="0.5"/>
			<circle class="st3" cx="949.5" cy="168.3" r="0.5"/>
			<circle class="st3" cx="964.6" cy="180.6" r="0.5"/>
			<circle class="st3" cx="971.2" cy="189.4" r="0.9"/>
			<circle class="st3" cx="984.4" cy="192.2" r="0.8"/>
			<circle class="st3" cx="1001.1" cy="191.1" r="0.8"/>
			<circle class="st3" cx="1014.2" cy="186.3" r="1"/>
			<circle class="st3" cx="974.8" cy="183.5" r="1.3"/>
			<circle class="st3" cx="972.1" cy="175.1" r="0.5"/>
			<circle class="st3" cx="983.5" cy="174.8" r="0.5"/>
			<circle class="st3" cx="971.6" cy="182.6" r="0.5"/>
			<circle class="st3" cx="959.7" cy="162.8" r="0.5"/>
			<circle class="st3" cx="936.4" cy="149.1" r="0.8"/>
			<circle class="st3" cx="941.1" cy="147.2" r="0.5"/>
			<circle class="st3" cx="951.1" cy="143.7" r="0.5"/>
			<circle class="st3" cx="960.9" cy="123.9" r="1.8"/>
			<circle class="st3" cx="943.6" cy="114.2" r="0.5"/>
			<circle class="st3" cx="949" cy="109.3" r="0.5"/>
			<circle class="st3" cx="943.3" cy="119.7" r="0.5"/>
			<circle class="st3" cx="952.6" cy="99.2" r="0.6"/>
			<circle class="st3" cx="972.5" cy="87.7" r="0.6"/>
			<circle class="st3" cx="965" cy="90.7" r="1.2"/>
			<circle class="st3" cx="977.2" cy="86.3" r="0.8"/>
			<circle class="st3" cx="965.5" cy="94.2" r="0.5"/>
			<circle class="st3" cx="968" cy="92" r="0.5"/>
			<circle class="st3" cx="989.2" cy="132.5" r="2.1"/>
			<circle class="st3" cx="958.9" cy="152.4" r="2.4"/>
		</g>
	</g>
	<g id="Слой_12">
		<linearGradient id="SVGID_2_" gradientUnits="userSpaceOnUse" x1="909.0411" y1="82.4441" x2="1066.5042" y2="82.4441">
			<stop  offset="0.219" style="stop-color:#019330"/>
			<stop  offset="0.4341" style="stop-color:#049A38"/>
			<stop  offset="0.7666" style="stop-color:#0BAC4E"/>
			<stop  offset="1" style="stop-color:#11BC61"/>
		</linearGradient>
		<path class="st5" d="M923.3,89.9l-13.8-3.4c-0.4-0.1-0.5-0.5-0.4-0.8l8-19.7c0.2-0.5,1-0.5,1.1,0.1l1.2,5.5c0.2,0.8,1,1.2,1.7,0.8
			c38.2-19.8,159.4-36.7,144,37.1c0,0,0.4-35-48.5-40.4c-49.9-5.6-87.3,10.2-93.4,13c-0.5,0.2-0.8,0.8-0.7,1.4l1.4,5.8
			C924.1,89.6,923.7,90,923.3,89.9z"/>
		<path class="st6" d="M1060.8,108c-10.2-42.9-95.8-38.4-125.6-22.4v0c1.4-1.5,3.1-2.7,5-3.6c28.4-13.2,93.4-18.6,114.9,9.5
			c3.1,4.1,5,9,5.5,14.1L1060.8,108z"/>
	</g>
	<g id="Слой_12__x28_копия_x29_">
		
			<linearGradient id="SVGID_3_" gradientUnits="userSpaceOnUse" x1="232.2528" y1="-723.6067" x2="74.7898" y2="-723.6067" gradientTransform="matrix(-1 0 0 -1 1141.1542 -527.1821)">
			<stop  offset="0.219" style="stop-color:#019330"/>
			<stop  offset="0.4341" style="stop-color:#049A38"/>
			<stop  offset="0.7666" style="stop-color:#0BAC4E"/>
			<stop  offset="1" style="stop-color:#11BC61"/>
		</linearGradient>
		<path class="st7" d="M1052.1,188.9l13.8,3.4c0.4,0.1,0.5,0.5,0.4,0.8l-8,19.7c-0.2,0.5-1,0.5-1.1-0.1l-1.2-5.5
			c-0.2-0.8-1-1.2-1.7-0.8c-38.2,19.8-159.4,36.7-144-37.1c0,0-0.4,35,48.5,40.4c49.9,5.6,87.3-10.2,93.4-13
			c0.5-0.2,0.8-0.8,0.7-1.4l-1.4-5.8C1051.3,189.2,1051.7,188.8,1052.1,188.9z"/>
		<path class="st6" d="M914.6,170.9c10.2,42.9,95.8,38.4,125.6,22.4l0,0c-1.4,1.5-3.1,2.7-5,3.6c-28.4,13.2-93.4,18.6-114.9-9.5
			c-3.1-4.1-5-9-5.5-14.1L914.6,170.9z"/>
	</g>
</g>
<g id="Слой_16">
	<path class="st8" d="M839.7,106.9c0.5,0,0.9-0.4,0.9-0.9V87.8c0-0.5-0.4-0.9-0.9-0.9h-91.2c-0.5,0-0.9,0.4-0.9,0.9v95.6
		c0,0.5,0.4,0.9,0.9,0.9h91.2c0.5,0,0.9-0.4,0.9-0.9v-18.2c0-0.5-0.4-0.9-0.9-0.9h-69.4c-0.5,0-0.9-0.4-0.9-0.9v-17
		c0-0.5,0.4-0.9,0.9-0.9h69.4c0.5,0,0.9-0.4,0.9-0.9v-18.2c0-0.5-0.4-0.9-0.9-0.9h-69.4c-0.5,0-0.9-0.4-0.9-0.9v-17
		c0-0.5,0.4-0.9,0.9-0.9H839.7z"/>
	<path class="st8" d="M663.3,87l-41.1,70c-0.3,0.6-1.2,0.6-1.5,0l-41.1-70h-24.3l57.1,97.3h18.1L687.6,87H663.3z"/>
	<path class="st8" d="M397.9,108.1v55.1c0,11.7,9.4,21.1,21.1,21.1h55.1c11.7,0,21.1-9.4,21.1-21.1v-55.1c0-11.7-9.4-21.1-21.1-21.1
		H419C407.4,87,397.9,96.4,397.9,108.1z M474.4,164.3h-55.7c-0.5,0-0.9-0.4-0.9-0.9v-55.7c0-0.5,0.4-0.9,0.9-0.9h55.7
		c0.5,0,0.9,0.4,0.9,0.9v55.7C475.3,163.9,474.9,164.3,474.4,164.3z"/>
	<path class="st8" d="M234,87v97.3h19.9v-32.6h28.4l27.4,32.6h21.6v-5.8l-22.8-26.9h1.7c11.7,0,21.1-9.4,21.1-21.1v-22.5
		c0-11.7-9.4-21.1-21.1-21.1H234z M310.5,131.7h-55.7c-0.5,0-0.9-0.4-0.9-0.9v-23c0-0.5,0.4-0.9,0.9-0.9h55.7c0.5,0,0.9,0.4,0.9,0.9
		v23C311.4,131.3,311,131.7,310.5,131.7z"/>
	<path class="st8" d="M67,108.1v55.1c0,11.7,9.4,21.1,21.1,21.1h55.1c11.7,0,21.1-9.4,21.1-21.1V128h-40.6V148h19.8
		c0.5,0,0.9,0.4,0.9,0.9v14.6c0,0.5-0.4,0.9-0.9,0.9H87.8c-0.5,0-0.9-0.4-0.9-0.9v-55.7c0-0.5,0.4-0.9,0.9-0.9h55.7
		c0.5,0,0.9,0.4,0.9,0.9v8.2h19.9v-7.9c0-11.7-9.4-21.1-21.1-21.1H88.1C76.4,87,67,96.4,67,108.1z"/>
</g>
</svg>
